<?xml version="1.0" encoding="UTF-8" standalone="no"?>
<!-- Created with Inkscape (http://www.inkscape.org/) -->

<svg
   version="1.1"
   id="svg1"
   width="491.39899"
   height="69.123001"
   viewBox="0 0 491.39899 69.123003"
   sodipodi:docname="Header_Timeline.svg"
   inkscape:version="1.4.2 (ebf0e94, 2025-05-08)"
   inkscape:export-filename="Borsa_ink.pdf"
   inkscape:export-xdpi="96"
   inkscape:export-ydpi="96"
   xmlns:inkscape="http://www.inkscape.org/namespaces/inkscape"
   xmlns:sodipodi="http://sodipodi.sourceforge.net/DTD/sodipodi-0.dtd"
   xmlns="http://www.w3.org/2000/svg"
   xmlns:svg="http://www.w3.org/2000/svg">
  <defs
     id="defs1">
    <clipPath
       clipPathUnits="userSpaceOnUse"
       id="clipPath3">
      <path
         d="M 0,0 H 383 V 383 H 0 Z"
         id="path3" />
    </clipPath>
    <clipPath
       clipPathUnits="userSpaceOnUse"
       id="clipPath6">
      <path
         d="M 0,0 H 383 V 383 H 0 Z"
         id="path6" />
    </clipPath>
    <clipPath
       clipPathUnits="userSpaceOnUse"
       id="clipPath9">
      <path
         d="M 0,0 H 383 V 383 H 0 Z"
         id="path9" />
    </clipPath>
    <clipPath
       clipPathUnits="userSpaceOnUse"
       id="clipPath12">
      <path
         d="M 0,0 H 383 V 383 H 0 Z"
         id="path12" />
    </clipPath>
    <clipPath
       clipPathUnits="userSpaceOnUse"
       id="clipPath15">
      <path
         d="M 0,0 H 383 V 383 H 0 Z"
         id="path15" />
    </clipPath>
    <clipPath
       clipPathUnits="userSpaceOnUse"
       id="clipPath18">
      <path
         d="M 0,0 H 383 V 383 H 0 Z"
         id="path18" />
    </clipPath>
    <clipPath
       clipPathUnits="userSpaceOnUse"
       id="clipPath21">
      <path
         d="M 0,0 H 383 V 383 H 0 Z"
         id="path21" />
    </clipPath>
    <clipPath
       clipPathUnits="userSpaceOnUse"
       id="clipPath24">
      <path
         d="M 0,0 H 383 V 383 H 0 Z"
         id="path24" />
    </clipPath>
    <clipPath
       clipPathUnits="userSpaceOnUse"
       id="clipPath27">
      <path
         d="M 0,0 H 383 V 383 H 0 Z"
         id="path27" />
    </clipPath>
    <clipPath
       clipPathUnits="userSpaceOnUse"
       id="clipPath30">
      <path
         d="M 0,0 H 383 V 383 H 0 Z"
         id="path30" />
    </clipPath>
    <clipPath
       clipPathUnits="userSpaceOnUse"
       id="clipPath33">
      <path
         d="M 0,0 H 383 V 383 H 0 Z"
         id="path33" />
    </clipPath>
    <clipPath
       clipPathUnits="userSpaceOnUse"
       id="clipPath36">
      <path
         d="M 0,0 H 383 V 383 H 0 Z"
         id="path36" />
    </clipPath>
    <clipPath
       clipPathUnits="userSpaceOnUse"
       id="clipPath39">
      <path
         d="M 0,0 H 383 V 383 H 0 Z"
         id="path39" />
    </clipPath>
    <clipPath
       clipPathUnits="userSpaceOnUse"
       id="clipPath42">
      <path
         d="M 0,0 H 383 V 383 H 0 Z"
         id="path42" />
    </clipPath>
    <clipPath
       clipPathUnits="userSpaceOnUse"
       id="clipPath45">
      <path
         d="M 0,0 H 383 V 383 H 0 Z"
         id="path45" />
    </clipPath>
    <clipPath
       clipPathUnits="userSpaceOnUse"
       id="clipPath48">
      <path
         d="M 0,0 H 383 V 383 H 0 Z"
         id="path48" />
    </clipPath>
    <clipPath
       clipPathUnits="userSpaceOnUse"
       id="clipPath51">
      <path
         d="M 0,0 H 383 V 383 H 0 Z"
         id="path51" />
    </clipPath>
    <clipPath
       clipPathUnits="userSpaceOnUse"
       id="clipPath54">
      <path
         d="M 0,0 H 383 V 383 H 0 Z"
         id="path54" />
    </clipPath>
    <clipPath
       clipPathUnits="userSpaceOnUse"
       id="clipPath57">
      <path
         d="M 0,0 H 383 V 383 H 0 Z"
         id="path57" />
    </clipPath>
    <clipPath
       clipPathUnits="userSpaceOnUse"
       id="clipPath60">
      <path
         d="M 0,0 H 383 V 383 H 0 Z"
         id="path60" />
    </clipPath>
    <clipPath
       clipPathUnits="userSpaceOnUse"
       id="clipPath63">
      <path
         d="M 0,0 H 383 V 383 H 0 Z"
         id="path63" />
    </clipPath>
    <clipPath
       clipPathUnits="userSpaceOnUse"
       id="clipPath66">
      <path
         d="M 0,0 H 383 V 383 H 0 Z"
         id="path66" />
    </clipPath>
    <clipPath
       clipPathUnits="userSpaceOnUse"
       id="clipPath69">
      <path
         d="M 0,0 H 383 V 383 H 0 Z"
         id="path69" />
    </clipPath>
    <clipPath
       clipPathUnits="userSpaceOnUse"
       id="clipPath72">
      <path
         d="M 0,0 H 383 V 383 H 0 Z"
         id="path72" />
    </clipPath>
    <clipPath
       clipPathUnits="userSpaceOnUse"
       id="clipPath75">
      <path
         d="M 0,0 H 383 V 383 H 0 Z"
         id="path75" />
    </clipPath>
    <clipPath
       clipPathUnits="userSpaceOnUse"
       id="clipPath78">
      <path
         d="M 0,0 H 383 V 383 H 0 Z"
         id="path78" />
    </clipPath>
    <clipPath
       clipPathUnits="userSpaceOnUse"
       id="clipPath81">
      <path
         d="M 0,0 H 383 V 383 H 0 Z"
         id="path81" />
    </clipPath>
    <clipPath
       clipPathUnits="userSpaceOnUse"
       id="clipPath84">
      <path
         d="M 0,0 H 383 V 383 H 0 Z"
         id="path84" />
    </clipPath>
    <clipPath
       clipPathUnits="userSpaceOnUse"
       id="clipPath87">
      <path
         d="M 0,0 H 383 V 383 H 0 Z"
         id="path87" />
    </clipPath>
    <clipPath
       clipPathUnits="userSpaceOnUse"
       id="clipPath90">
      <path
         d="M 0,0 H 383 V 383 H 0 Z"
         id="path90" />
    </clipPath>
    <clipPath
       clipPathUnits="userSpaceOnUse"
       id="clipPath93">
      <path
         d="M 0,0 H 383 V 383 H 0 Z"
         id="path93" />
    </clipPath>
    <clipPath
       clipPathUnits="userSpaceOnUse"
       id="clipPath96">
      <path
         d="M 0,0 H 383 V 383 H 0 Z"
         id="path96" />
    </clipPath>
    <clipPath
       clipPathUnits="userSpaceOnUse"
       id="clipPath116">
      <path
         d="M 97.046664,27.630666 H 72.969332 v 2.828 h 24.077332 v 13.672 H 72.969332 v 2.822666 h 24.077332 v 10.932 c 0,1.677333 -1.374666,3.046666 -3.057333,3.046666 H 53.093332 c -1.686667,0 -3.062667,-1.369333 -3.062667,-3.046666 V 16.702666 c 0,-1.681333 1.376,-3.052 3.062667,-3.052 h 40.885332 c 1.682667,0 3.057334,1.370667 3.057334,3.052 v 10.928 z M 121.552,60.958665 h -18.60934 c -1.688,0 -3.062662,-1.370666 -3.062662,-3.052 V 30.458666 H 121.552 Z m 24.516,-3.052 c 0,1.681334 -1.37067,3.052 -3.05734,3.052 H 124.38533 V 30.469333 H 146.068 Z m 0,-30.275999 H 99.879998 v -10.928 c 0,-1.681333 1.374662,-3.052 3.062662,-3.052 h 40.068 c 1.68667,0 3.05734,1.370667 3.05734,3.052 z"
         id="path116"
         style="stroke-width:1.33333" />
    </clipPath>
    <clipPath
       clipPathUnits="userSpaceOnUse"
       id="clipPath117">
      <path
         d="m 37,10 h 73 V 46 H 37 Z"
         id="path117"
         style="stroke-width:0.999998" />
    </clipPath>
    <clipPath
       clipPathUnits="userSpaceOnUse"
       id="clipPath118">
      <path
         d="m 37,10 h 73 V 46 H 37 Z"
         id="path118"
         style="stroke-width:0.999998" />
    </clipPath>
    <clipPath
       clipPathUnits="userSpaceOnUse"
       id="clipPath119">
      <path
         d="m 37,10 h 73 V 46 H 37 Z"
         id="path119"
         style="stroke-width:0.999998" />
    </clipPath>
    <clipPath
       clipPathUnits="userSpaceOnUse"
       id="clipPath120">
      <path
         d="m 37,10 h 73 V 46 H 37 Z"
         id="path120"
         style="stroke-width:0.999998" />
    </clipPath>
    <clipPath
       clipPathUnits="userSpaceOnUse"
       id="clipPath121">
      <path
         d="m 37,10 h 73 V 46 H 37 Z"
         id="path121"
         style="stroke-width:0.999998" />
    </clipPath>
    <clipPath
       clipPathUnits="userSpaceOnUse"
       id="clipPath122">
      <path
         d="m 37,10 h 73 V 46 H 37 Z"
         id="path122"
         style="stroke-width:0.999998" />
    </clipPath>
    <clipPath
       clipPathUnits="userSpaceOnUse"
       id="clipPath123">
      <path
         d="m 37,10 h 73 V 46 H 37 Z"
         id="path123"
         style="stroke-width:0.999998" />
    </clipPath>
    <clipPath
       clipPathUnits="userSpaceOnUse"
       id="clipPath124">
      <path
         d="m 37,10 h 73 V 46 H 37 Z"
         id="path124"
         style="stroke-width:0.999998" />
    </clipPath>
    <clipPath
       clipPathUnits="userSpaceOnUse"
       id="clipPath125">
      <path
         d="m 37,10 h 73 V 46 H 37 Z"
         id="path125"
         style="stroke-width:0.999998" />
    </clipPath>
    <clipPath
       clipPathUnits="userSpaceOnUse"
       id="clipPath126">
      <path
         d="m 37,10 h 73 V 46 H 37 Z"
         id="path126"
         style="stroke-width:0.999998" />
    </clipPath>
    <clipPath
       clipPathUnits="userSpaceOnUse"
       id="clipPath127">
      <path
         d="m 37,10 h 73 V 46 H 37 Z"
         id="path127"
         style="stroke-width:0.999998" />
    </clipPath>
    <clipPath
       clipPathUnits="userSpaceOnUse"
       id="clipPath128">
      <path
         d="m 37,10 h 73 V 46 H 37 Z"
         id="path128"
         style="stroke-width:0.999998" />
    </clipPath>
    <clipPath
       clipPathUnits="userSpaceOnUse"
       id="clipPath129">
      <path
         d="m 37,10 h 73 V 46 H 37 Z"
         id="path129"
         style="stroke-width:0.999998" />
    </clipPath>
    <clipPath
       clipPathUnits="userSpaceOnUse"
       id="clipPath130">
      <path
         d="m 37,10 h 73 V 46 H 37 Z"
         id="path130"
         style="stroke-width:0.999998" />
    </clipPath>
    <clipPath
       clipPathUnits="userSpaceOnUse"
       id="clipPath131">
      <path
         d="m 37,10 h 73 V 46 H 37 Z"
         id="path131"
         style="stroke-width:0.999998" />
    </clipPath>
    <clipPath
       clipPathUnits="userSpaceOnUse"
       id="clipPath132">
      <path
         d="m 37,10 h 73 V 46 H 37 Z"
         id="path132"
         style="stroke-width:0.999998" />
    </clipPath>
    <clipPath
       clipPathUnits="userSpaceOnUse"
       id="clipPath133">
      <path
         d="m 37,10 h 73 V 46 H 37 Z"
         id="path133"
         style="stroke-width:0.999998" />
    </clipPath>
    <clipPath
       clipPathUnits="userSpaceOnUse"
       id="clipPath134">
      <path
         d="m 37,10 h 73 V 46 H 37 Z"
         id="path134"
         style="stroke-width:0.999998" />
    </clipPath>
    <clipPath
       clipPathUnits="userSpaceOnUse"
       id="clipPath135">
      <path
         d="m 37,10 h 73 V 46 H 37 Z"
         id="path135"
         style="stroke-width:0.999998" />
    </clipPath>
    <clipPath
       clipPathUnits="userSpaceOnUse"
       id="clipPath136">
      <path
         d="m 37,10 h 73 V 46 H 37 Z"
         id="path136"
         style="stroke-width:0.999998" />
    </clipPath>
    <clipPath
       clipPathUnits="userSpaceOnUse"
       id="clipPath137">
      <path
         d="m 37,10 h 73 V 46 H 37 Z"
         id="path137"
         style="stroke-width:0.999998" />
    </clipPath>
    <clipPath
       clipPathUnits="userSpaceOnUse"
       id="clipPath138">
      <path
         d="m 37,10 h 73 V 46 H 37 Z"
         id="path138"
         style="stroke-width:0.999998" />
    </clipPath>
    <clipPath
       clipPathUnits="userSpaceOnUse"
       id="clipPath139">
      <path
         d="m 37,10 h 73 V 46 H 37 Z"
         id="path139"
         style="stroke-width:0.999998" />
    </clipPath>
    <clipPath
       clipPathUnits="userSpaceOnUse"
       id="clipPath140">
      <path
         d="m 37,10 h 73 V 46 H 37 Z"
         id="path140"
         style="stroke-width:0.999998" />
    </clipPath>
    <clipPath
       clipPathUnits="userSpaceOnUse"
       id="clipPath141">
      <path
         d="m 37,10 h 73 V 46 H 37 Z"
         id="path141"
         style="stroke-width:0.999998" />
    </clipPath>
    <clipPath
       clipPathUnits="userSpaceOnUse"
       id="clipPath142">
      <path
         d="m 37,10 h 73 V 46 H 37 Z"
         id="path142"
         style="stroke-width:0.999998" />
    </clipPath>
    <clipPath
       clipPathUnits="userSpaceOnUse"
       id="clipPath143">
      <path
         d="m 37,10 h 73 V 46 H 37 Z"
         id="path143"
         style="stroke-width:0.999998" />
    </clipPath>
    <clipPath
       clipPathUnits="userSpaceOnUse"
       id="clipPath144">
      <path
         d="m 37,10 h 73 V 46 H 37 Z"
         id="path144"
         style="stroke-width:0.999998" />
    </clipPath>
    <clipPath
       clipPathUnits="userSpaceOnUse"
       id="clipPath145">
      <path
         d="m 37,10 h 73 V 46 H 37 Z"
         id="path145"
         style="stroke-width:0.999998" />
    </clipPath>
    <clipPath
       clipPathUnits="userSpaceOnUse"
       id="clipPath146">
      <path
         d="m 37,10 h 73 V 46 H 37 Z"
         id="path146"
         style="stroke-width:0.999998" />
    </clipPath>
    <clipPath
       clipPathUnits="userSpaceOnUse"
       id="clipPath147">
      <path
         d="m 37,10 h 73 V 46 H 37 Z"
         id="path147"
         style="stroke-width:0.999998" />
    </clipPath>
    <filter
       style="color-interpolation-filters:sRGB;"
       inkscape:label="Colorize"
       id="filter4"
       x="0"
       y="0"
       width="1"
       height="1">
      <feComposite
         in2="SourceGraphic"
         operator="arithmetic"
         k1="0"
         k2="1"
         result="composite1"
         id="feComposite3" />
      <feColorMatrix
         in="composite1"
         values="1"
         type="saturate"
         result="colormatrix1"
         id="feColorMatrix3" />
      <feFlood
         flood-opacity="1"
         flood-color="rgb(26,35,126)"
         result="flood1"
         id="feFlood3" />
      <feBlend
         in="flood1"
         in2="colormatrix1"
         mode="multiply"
         result="blend1"
         id="feBlend3" />
      <feBlend
         in2="blend1"
         mode="screen"
         result="blend2"
         id="feBlend4" />
      <feColorMatrix
         in="blend2"
         values="1"
         type="saturate"
         result="colormatrix2"
         id="feColorMatrix4" />
      <feComposite
         in="colormatrix2"
         in2="SourceGraphic"
         operator="in"
         k2="1"
         result="composite2"
         id="feComposite4" />
    </filter>
    <filter
       style="color-interpolation-filters:sRGB;"
       inkscape:label="Colorize"
       id="filter6"
       x="0"
       y="0"
       width="1"
       height="1">
      <feComposite
         in2="SourceGraphic"
         operator="arithmetic"
         k1="0"
         k2="1"
         result="composite1"
         id="feComposite5" />
      <feColorMatrix
         in="composite1"
         values="1"
         type="saturate"
         result="colormatrix1"
         id="feColorMatrix5" />
      <feFlood
         flood-opacity="1"
         flood-color="rgb(26,35,126)"
         result="flood1"
         id="feFlood5" />
      <feBlend
         in="flood1"
         in2="colormatrix1"
         mode="multiply"
         result="blend1"
         id="feBlend5" />
      <feBlend
         in2="blend1"
         mode="screen"
         result="blend2"
         id="feBlend6" />
      <feColorMatrix
         in="blend2"
         values="1"
         type="saturate"
         result="colormatrix2"
         id="feColorMatrix6" />
      <feComposite
         in="colormatrix2"
         in2="SourceGraphic"
         operator="in"
         k2="1"
         result="composite2"
         id="feComposite6" />
    </filter>
    <filter
       style="color-interpolation-filters:sRGB;"
       inkscape:label="Colorize"
       id="filter8"
       x="0"
       y="0"
       width="1"
       height="1">
      <feComposite
         in2="SourceGraphic"
         operator="arithmetic"
         k1="0"
         k2="1"
         result="composite1"
         id="feComposite7" />
      <feColorMatrix
         in="composite1"
         values="1"
         type="saturate"
         result="colormatrix1"
         id="feColorMatrix7" />
      <feFlood
         flood-opacity="1"
         flood-color="rgb(26,35,126)"
         result="flood1"
         id="feFlood7" />
      <feBlend
         in="flood1"
         in2="colormatrix1"
         mode="multiply"
         result="blend1"
         id="feBlend7" />
      <feBlend
         in2="blend1"
         mode="screen"
         result="blend2"
         id="feBlend8" />
      <feColorMatrix
         in="blend2"
         values="1"
         type="saturate"
         result="colormatrix2"
         id="feColorMatrix8" />
      <feComposite
         in="colormatrix2"
         in2="SourceGraphic"
         operator="in"
         k2="1"
         result="composite2"
         id="feComposite8" />
    </filter>
    <filter
       style="color-interpolation-filters:sRGB;"
       inkscape:label="Colorize"
       id="filter10"
       x="0"
       y="0"
       width="1"
       height="1">
      <feComposite
         in2="SourceGraphic"
         operator="arithmetic"
         k1="0"
         k2="1"
         result="composite1"
         id="feComposite9" />
      <feColorMatrix
         in="composite1"
         values="1"
         type="saturate"
         result="colormatrix1"
         id="feColorMatrix9" />
      <feFlood
         flood-opacity="1"
         flood-color="rgb(26,35,126)"
         result="flood1"
         id="feFlood9" />
      <feBlend
         in="flood1"
         in2="colormatrix1"
         mode="multiply"
         result="blend1"
         id="feBlend9" />
      <feBlend
         in2="blend1"
         mode="screen"
         result="blend2"
         id="feBlend10" />
      <feColorMatrix
         in="blend2"
         values="1"
         type="saturate"
         result="colormatrix2"
         id="feColorMatrix10" />
      <feComposite
         in="colormatrix2"
         in2="SourceGraphic"
         operator="in"
         k2="1"
         result="composite2"
         id="feComposite10" />
    </filter>
    <filter
       style="color-interpolation-filters:sRGB;"
       inkscape:label="Colorize"
       id="filter12"
       x="0"
       y="0"
       width="1"
       height="1">
      <feComposite
         in2="SourceGraphic"
         operator="arithmetic"
         k1="0"
         k2="1"
         result="composite1"
         id="feComposite11" />
      <feColorMatrix
         in="composite1"
         values="1"
         type="saturate"
         result="colormatrix1"
         id="feColorMatrix11" />
      <feFlood
         flood-opacity="1"
         flood-color="rgb(26,35,126)"
         result="flood1"
         id="feFlood11" />
      <feBlend
         in="flood1"
         in2="colormatrix1"
         mode="multiply"
         result="blend1"
         id="feBlend11" />
      <feBlend
         in2="blend1"
         mode="screen"
         result="blend2"
         id="feBlend12" />
      <feColorMatrix
         in="blend2"
         values="1"
         type="saturate"
         result="colormatrix2"
         id="feColorMatrix12" />
      <feComposite
         in="colormatrix2"
         in2="SourceGraphic"
         operator="in"
         k2="1"
         result="composite2"
         id="feComposite12" />
    </filter>
    <filter
       style="color-interpolation-filters:sRGB;"
       inkscape:label="Colorize"
       id="filter14"
       x="0"
       y="0"
       width="1"
       height="1">
      <feComposite
         in2="SourceGraphic"
         operator="arithmetic"
         k1="0"
         k2="1"
         result="composite1"
         id="feComposite13" />
      <feColorMatrix
         in="composite1"
         values="1"
         type="saturate"
         result="colormatrix1"
         id="feColorMatrix13" />
      <feFlood
         flood-opacity="1"
         flood-color="rgb(26,35,126)"
         result="flood1"
         id="feFlood13" />
      <feBlend
         in="flood1"
         in2="colormatrix1"
         mode="multiply"
         result="blend1"
         id="feBlend13" />
      <feBlend
         in2="blend1"
         mode="screen"
         result="blend2"
         id="feBlend14" />
      <feColorMatrix
         in="blend2"
         values="1"
         type="saturate"
         result="colormatrix2"
         id="feColorMatrix14" />
      <feComposite
         in="colormatrix2"
         in2="SourceGraphic"
         operator="in"
         k2="1"
         result="composite2"
         id="feComposite14" />
    </filter>
    <filter
       style="color-interpolation-filters:sRGB;"
       inkscape:label="Colorize"
       id="filter16"
       x="0"
       y="0"
       width="1"
       height="1">
      <feComposite
         in2="SourceGraphic"
         operator="arithmetic"
         k1="0"
         k2="1"
         result="composite1"
         id="feComposite15" />
      <feColorMatrix
         in="composite1"
         values="1"
         type="saturate"
         result="colormatrix1"
         id="feColorMatrix15" />
      <feFlood
         flood-opacity="1"
         flood-color="rgb(26,35,126)"
         result="flood1"
         id="feFlood15" />
      <feBlend
         in="flood1"
         in2="colormatrix1"
         mode="multiply"
         result="blend1"
         id="feBlend15" />
      <feBlend
         in2="blend1"
         mode="screen"
         result="blend2"
         id="feBlend16" />
      <feColorMatrix
         in="blend2"
         values="1"
         type="saturate"
         result="colormatrix2"
         id="feColorMatrix16" />
      <feComposite
         in="colormatrix2"
         in2="SourceGraphic"
         operator="in"
         k2="1"
         result="composite2"
         id="feComposite16" />
    </filter>
    <filter
       style="color-interpolation-filters:sRGB;"
       inkscape:label="Colorize"
       id="filter18"
       x="0"
       y="0"
       width="1"
       height="1">
      <feComposite
         in2="SourceGraphic"
         operator="arithmetic"
         k1="0"
         k2="1"
         result="composite1"
         id="feComposite17" />
      <feColorMatrix
         in="composite1"
         values="1"
         type="saturate"
         result="colormatrix1"
         id="feColorMatrix17" />
      <feFlood
         flood-opacity="1"
         flood-color="rgb(26,35,126)"
         result="flood1"
         id="feFlood17" />
      <feBlend
         in="flood1"
         in2="colormatrix1"
         mode="multiply"
         result="blend1"
         id="feBlend17" />
      <feBlend
         in2="blend1"
         mode="screen"
         result="blend2"
         id="feBlend18" />
      <feColorMatrix
         in="blend2"
         values="1"
         type="saturate"
         result="colormatrix2"
         id="feColorMatrix18" />
      <feComposite
         in="colormatrix2"
         in2="SourceGraphic"
         operator="in"
         k2="1"
         result="composite2"
         id="feComposite18" />
    </filter>
    <filter
       style="color-interpolation-filters:sRGB;"
       inkscape:label="Colorize"
       id="filter20"
       x="0"
       y="0"
       width="1"
       height="1">
      <feComposite
         in2="SourceGraphic"
         operator="arithmetic"
         k1="0"
         k2="1"
         result="composite1"
         id="feComposite19" />
      <feColorMatrix
         in="composite1"
         values="1"
         type="saturate"
         result="colormatrix1"
         id="feColorMatrix19" />
      <feFlood
         flood-opacity="1"
         flood-color="rgb(26,35,126)"
         result="flood1"
         id="feFlood19" />
      <feBlend
         in="flood1"
         in2="colormatrix1"
         mode="multiply"
         result="blend1"
         id="feBlend19" />
      <feBlend
         in2="blend1"
         mode="screen"
         result="blend2"
         id="feBlend20" />
      <feColorMatrix
         in="blend2"
         values="1"
         type="saturate"
         result="colormatrix2"
         id="feColorMatrix20" />
      <feComposite
         in="colormatrix2"
         in2="SourceGraphic"
         operator="in"
         k2="1"
         result="composite2"
         id="feComposite20" />
    </filter>
    <filter
       style="color-interpolation-filters:sRGB;"
       inkscape:label="Colorize"
       id="filter22"
       x="0"
       y="0"
       width="1"
       height="1">
      <feComposite
         in2="SourceGraphic"
         operator="arithmetic"
         k1="0"
         k2="1"
         result="composite1"
         id="feComposite21" />
      <feColorMatrix
         in="composite1"
         values="1"
         type="saturate"
         result="colormatrix1"
         id="feColorMatrix21" />
      <feFlood
         flood-opacity="1"
         flood-color="rgb(26,35,126)"
         result="flood1"
         id="feFlood21" />
      <feBlend
         in="flood1"
         in2="colormatrix1"
         mode="multiply"
         result="blend1"
         id="feBlend21" />
      <feBlend
         in2="blend1"
         mode="screen"
         result="blend2"
         id="feBlend22" />
      <feColorMatrix
         in="blend2"
         values="1"
         type="saturate"
         result="colormatrix2"
         id="feColorMatrix22" />
      <feComposite
         in="colormatrix2"
         in2="SourceGraphic"
         operator="in"
         k2="1"
         result="composite2"
         id="feComposite22" />
    </filter>
    <filter
       style="color-interpolation-filters:sRGB;"
       inkscape:label="Colorize"
       id="filter24"
       x="0"
       y="0"
       width="1"
       height="1">
      <feComposite
         in2="SourceGraphic"
         operator="arithmetic"
         k1="0"
         k2="1"
         result="composite1"
         id="feComposite23" />
      <feColorMatrix
         in="composite1"
         values="1"
         type="saturate"
         result="colormatrix1"
         id="feColorMatrix23" />
      <feFlood
         flood-opacity="1"
         flood-color="rgb(26,35,126)"
         result="flood1"
         id="feFlood23" />
      <feBlend
         in="flood1"
         in2="colormatrix1"
         mode="multiply"
         result="blend1"
         id="feBlend23" />
      <feBlend
         in2="blend1"
         mode="screen"
         result="blend2"
         id="feBlend24" />
      <feColorMatrix
         in="blend2"
         values="1"
         type="saturate"
         result="colormatrix2"
         id="feColorMatrix24" />
      <feComposite
         in="colormatrix2"
         in2="SourceGraphic"
         operator="in"
         k2="1"
         result="composite2"
         id="feComposite24" />
    </filter>
    <filter
       style="color-interpolation-filters:sRGB;"
       inkscape:label="Colorize"
       id="filter26"
       x="0"
       y="0"
       width="1"
       height="1">
      <feComposite
         in2="SourceGraphic"
         operator="arithmetic"
         k1="0"
         k2="1"
         result="composite1"
         id="feComposite25" />
      <feColorMatrix
         in="composite1"
         values="1"
         type="saturate"
         result="colormatrix1"
         id="feColorMatrix25" />
      <feFlood
         flood-opacity="1"
         flood-color="rgb(26,35,126)"
         result="flood1"
         id="feFlood25" />
      <feBlend
         in="flood1"
         in2="colormatrix1"
         mode="multiply"
         result="blend1"
         id="feBlend25" />
      <feBlend
         in2="blend1"
         mode="screen"
         result="blend2"
         id="feBlend26" />
      <feColorMatrix
         in="blend2"
         values="1"
         type="saturate"
         result="colormatrix2"
         id="feColorMatrix26" />
      <feComposite
         in="colormatrix2"
         in2="SourceGraphic"
         operator="in"
         k2="1"
         result="composite2"
         id="feComposite26" />
    </filter>
    <filter
       style="color-interpolation-filters:sRGB;"
       inkscape:label="Colorize"
       id="filter28"
       x="0"
       y="0"
       width="1"
       height="1">
      <feComposite
         in2="SourceGraphic"
         operator="arithmetic"
         k1="0"
         k2="1"
         result="composite1"
         id="feComposite27" />
      <feColorMatrix
         in="composite1"
         values="1"
         type="saturate"
         result="colormatrix1"
         id="feColorMatrix27" />
      <feFlood
         flood-opacity="1"
         flood-color="rgb(26,35,126)"
         result="flood1"
         id="feFlood27" />
      <feBlend
         in="flood1"
         in2="colormatrix1"
         mode="multiply"
         result="blend1"
         id="feBlend27" />
      <feBlend
         in2="blend1"
         mode="screen"
         result="blend2"
         id="feBlend28" />
      <feColorMatrix
         in="blend2"
         values="1"
         type="saturate"
         result="colormatrix2"
         id="feColorMatrix28" />
      <feComposite
         in="colormatrix2"
         in2="SourceGraphic"
         operator="in"
         k2="1"
         result="composite2"
         id="feComposite28" />
    </filter>
    <filter
       style="color-interpolation-filters:sRGB;"
       inkscape:label="Colorize"
       id="filter30"
       x="0"
       y="0"
       width="1"
       height="1">
      <feComposite
         in2="SourceGraphic"
         operator="arithmetic"
         k1="0"
         k2="1"
         result="composite1"
         id="feComposite29" />
      <feColorMatrix
         in="composite1"
         values="1"
         type="saturate"
         result="colormatrix1"
         id="feColorMatrix29" />
      <feFlood
         flood-opacity="1"
         flood-color="rgb(26,35,126)"
         result="flood1"
         id="feFlood29" />
      <feBlend
         in="flood1"
         in2="colormatrix1"
         mode="multiply"
         result="blend1"
         id="feBlend29" />
      <feBlend
         in2="blend1"
         mode="screen"
         result="blend2"
         id="feBlend30" />
      <feColorMatrix
         in="blend2"
         values="1"
         type="saturate"
         result="colormatrix2"
         id="feColorMatrix30" />
      <feComposite
         in="colormatrix2"
         in2="SourceGraphic"
         operator="in"
         k2="1"
         result="composite2"
         id="feComposite30" />
    </filter>
    <filter
       style="color-interpolation-filters:sRGB;"
       inkscape:label="Colorize"
       id="filter32"
       x="0"
       y="0"
       width="1"
       height="1">
      <feComposite
         in2="SourceGraphic"
         operator="arithmetic"
         k1="0"
         k2="1"
         result="composite1"
         id="feComposite31" />
      <feColorMatrix
         in="composite1"
         values="1"
         type="saturate"
         result="colormatrix1"
         id="feColorMatrix31" />
      <feFlood
         flood-opacity="1"
         flood-color="rgb(26,35,126)"
         result="flood1"
         id="feFlood31" />
      <feBlend
         in="flood1"
         in2="colormatrix1"
         mode="multiply"
         result="blend1"
         id="feBlend31" />
      <feBlend
         in2="blend1"
         mode="screen"
         result="blend2"
         id="feBlend32" />
      <feColorMatrix
         in="blend2"
         values="1"
         type="saturate"
         result="colormatrix2"
         id="feColorMatrix32" />
      <feComposite
         in="colormatrix2"
         in2="SourceGraphic"
         operator="in"
         k2="1"
         result="composite2"
         id="feComposite32" />
    </filter>
    <filter
       style="color-interpolation-filters:sRGB;"
       inkscape:label="Colorize"
       id="filter34"
       x="0"
       y="0"
       width="1"
       height="1">
      <feComposite
         in2="SourceGraphic"
         operator="arithmetic"
         k1="0"
         k2="1"
         result="composite1"
         id="feComposite33" />
      <feColorMatrix
         in="composite1"
         values="1"
         type="saturate"
         result="colormatrix1"
         id="feColorMatrix33" />
      <feFlood
         flood-opacity="1"
         flood-color="rgb(26,35,126)"
         result="flood1"
         id="feFlood33" />
      <feBlend
         in="flood1"
         in2="colormatrix1"
         mode="multiply"
         result="blend1"
         id="feBlend33" />
      <feBlend
         in2="blend1"
         mode="screen"
         result="blend2"
         id="feBlend34" />
      <feColorMatrix
         in="blend2"
         values="1"
         type="saturate"
         result="colormatrix2"
         id="feColorMatrix34" />
      <feComposite
         in="colormatrix2"
         in2="SourceGraphic"
         operator="in"
         k2="1"
         result="composite2"
         id="feComposite34" />
    </filter>
    <filter
       style="color-interpolation-filters:sRGB;"
       inkscape:label="Colorize"
       id="filter36"
       x="0"
       y="0"
       width="1"
       height="1">
      <feComposite
         in2="SourceGraphic"
         operator="arithmetic"
         k1="0"
         k2="1"
         result="composite1"
         id="feComposite35" />
      <feColorMatrix
         in="composite1"
         values="1"
         type="saturate"
         result="colormatrix1"
         id="feColorMatrix35" />
      <feFlood
         flood-opacity="1"
         flood-color="rgb(26,35,126)"
         result="flood1"
         id="feFlood35" />
      <feBlend
         in="flood1"
         in2="colormatrix1"
         mode="multiply"
         result="blend1"
         id="feBlend35" />
      <feBlend
         in2="blend1"
         mode="screen"
         result="blend2"
         id="feBlend36" />
      <feColorMatrix
         in="blend2"
         values="1"
         type="saturate"
         result="colormatrix2"
         id="feColorMatrix36" />
      <feComposite
         in="colormatrix2"
         in2="SourceGraphic"
         operator="in"
         k2="1"
         result="composite2"
         id="feComposite36" />
    </filter>
    <filter
       style="color-interpolation-filters:sRGB;"
       inkscape:label="Colorize"
       id="filter39"
       x="0"
       y="0"
       width="1"
       height="1">
      <feComposite
         in2="SourceGraphic"
         operator="arithmetic"
         k1="0"
         k2="1"
         result="composite1"
         id="feComposite38" />
      <feColorMatrix
         in="composite1"
         values="1"
         type="saturate"
         result="colormatrix1"
         id="feColorMatrix38" />
      <feFlood
         flood-opacity="1"
         flood-color="rgb(26,35,126)"
         result="flood1"
         id="feFlood38" />
      <feBlend
         in="flood1"
         in2="colormatrix1"
         mode="multiply"
         result="blend1"
         id="feBlend38" />
      <feBlend
         in2="blend1"
         mode="screen"
         result="blend2"
         id="feBlend39" />
      <feColorMatrix
         in="blend2"
         values="1"
         type="saturate"
         result="colormatrix2"
         id="feColorMatrix39" />
      <feComposite
         in="colormatrix2"
         in2="SourceGraphic"
         operator="in"
         k2="1"
         result="composite2"
         id="feComposite39" />
    </filter>
    <filter
       style="color-interpolation-filters:sRGB;"
       inkscape:label="Colorize"
       id="filter44"
       x="0"
       y="0"
       width="1"
       height="1">
      <feComposite
         in2="SourceGraphic"
         operator="arithmetic"
         k1="0"
         k2="1"
         result="composite1"
         id="feComposite43" />
      <feColorMatrix
         in="composite1"
         values="1"
         type="saturate"
         result="colormatrix1"
         id="feColorMatrix43" />
      <feFlood
         flood-opacity="1"
         flood-color="rgb(26,35,126)"
         result="flood1"
         id="feFlood43" />
      <feBlend
         in="flood1"
         in2="colormatrix1"
         mode="multiply"
         result="blend1"
         id="feBlend43" />
      <feBlend
         in2="blend1"
         mode="screen"
         result="blend2"
         id="feBlend44" />
      <feColorMatrix
         in="blend2"
         values="1"
         type="saturate"
         result="colormatrix2"
         id="feColorMatrix44" />
      <feComposite
         in="colormatrix2"
         in2="SourceGraphic"
         operator="in"
         k2="1"
         result="composite2"
         id="feComposite44" />
    </filter>
    <filter
       style="color-interpolation-filters:sRGB;"
       inkscape:label="Colorize"
       id="filter46"
       x="0"
       y="0"
       width="1"
       height="1">
      <feComposite
         in2="SourceGraphic"
         operator="arithmetic"
         k1="0"
         k2="1"
         result="composite1"
         id="feComposite45" />
      <feColorMatrix
         in="composite1"
         values="1"
         type="saturate"
         result="colormatrix1"
         id="feColorMatrix45" />
      <feFlood
         flood-opacity="1"
         flood-color="rgb(26,35,126)"
         result="flood1"
         id="feFlood45" />
      <feBlend
         in="flood1"
         in2="colormatrix1"
         mode="multiply"
         result="blend1"
         id="feBlend45" />
      <feBlend
         in2="blend1"
         mode="screen"
         result="blend2"
         id="feBlend46" />
      <feColorMatrix
         in="blend2"
         values="1"
         type="saturate"
         result="colormatrix2"
         id="feColorMatrix46" />
      <feComposite
         in="colormatrix2"
         in2="SourceGraphic"
         operator="in"
         k2="1"
         result="composite2"
         id="feComposite46" />
    </filter>
  </defs>
  <sodipodi:namedview
     id="namedview1"
     pagecolor="#ffffff"
     bordercolor="#000000"
     borderopacity="0.25"
     inkscape:showpageshadow="2"
     inkscape:pageopacity="0.0"
     inkscape:pagecheckerboard="0"
     inkscape:deskcolor="#d1d1d1"
     inkscape:zoom="3.0933614"
     inkscape:cx="234.85779"
     inkscape:cy="44.450028"
     inkscape:window-width="2383"
     inkscape:window-height="1486"
     inkscape:window-x="3420"
     inkscape:window-y="546"
     inkscape:window-maximized="0"
     inkscape:current-layer="g1"
     showguides="true">
    <inkscape:page
       x="0"
       y="0"
       id="page1"
       width="491.39899"
       height="69.123001"
       margin="0"
       bleed="0" />
    <sodipodi:guide
       position="572.03832,109.43853"
       orientation="1,0"
       id="guide2"
       inkscape:locked="false" />
  </sodipodi:namedview>
  <g
     id="g1"
     inkscape:groupmode="layer"
     inkscape:label=""
     transform="translate(-9.9201156,-25.764071)">
    <path
       id="path2"
       d="m 10.348572,87.775108 -0.0084,-1.093299 405.485318,-0.23662 c 7.71785,-0.01044 14.03549,-0.02993 14.03549,-0.06192 0,-0.02993 0.0703,-0.538653 0.14684,-1.128797 0.0842,-0.59224 0.21435,-1.592983 0.3069,-2.22628 0.0814,-0.633289 0.39669,-3.153248 0.69593,-5.597354 0.29926,-2.448974 0.58459,-4.773376 0.63887,-5.175623 0.0571,-0.40503 0.0842,-0.758562 0.0571,-0.794054 -0.0299,-0.03549 -0.6333,-0.0084 -1.3508,0.06263 -0.7182,0.06263 -2.22141,0.160064 -3.3328,0.209475 -1.54427,0.0675 -2.46289,0.0675 -3.83597,0 -0.98682,-0.05707 -2.33762,-0.16076 -2.99319,-0.250535 -0.65208,-0.08421 -1.54914,-0.235919 -1.98966,-0.334046 -0.44609,-0.105781 -1.03066,-0.258189 -1.30765,-0.347964 -0.2721,-0.09256 -0.85669,-0.342397 -1.30208,-0.55744 -0.63329,-0.306904 -0.90262,-0.486454 -1.26729,-0.855992 -0.2554,-0.258189 -0.57622,-0.695928 -0.72307,-0.968037 -0.22269,-0.42382 -0.26375,-0.590148 -0.29089,-1.146891 -0.0215,-0.370234 0.006,-0.835114 0.055,-1.071034 0.0571,-0.236616 0.24427,-0.739772 0.42382,-1.114878 0.18233,-0.383456 0.49481,-0.918626 0.69593,-1.190734 0.20391,-0.272108 0.57901,-0.736989 0.83442,-1.02232 0.25262,-0.293682 0.79405,-0.815629 1.19073,-1.155241 0.40503,-0.347965 0.95412,-0.807278 1.23179,-1.016753 0.27141,-0.214346 0.856,-0.633295 1.30209,-0.924193 0.44539,-0.29925 1.42665,-0.878262 2.18521,-1.280509 0.75857,-0.405031 1.98479,-0.975692 2.72109,-1.26659 0.73698,-0.293683 1.63404,-0.614506 1.9987,-0.723071 0.35284,-0.105781 0.96456,-0.266541 1.35637,-0.356315 0.38833,-0.08421 0.91862,-0.152409 1.16847,-0.152409 0.36187,0 0.4948,0.03271 0.61172,0.152409 0.0898,0.08421 0.16075,0.228264 0.16075,0.32639 0,0.09256 -0.0627,0.231048 -0.13362,0.299249 -0.0758,0.07029 -0.27698,0.195556 -0.44261,0.279764 -0.16841,0.08142 -0.72585,0.312472 -1.23457,0.513596 -0.49968,0.195555 -1.522,0.620072 -2.26177,0.932544 -0.73629,0.312472 -1.97644,0.905404 -2.75379,1.316001 -0.78014,0.410599 -1.93538,1.084258 -2.56868,1.494856 -0.63329,0.418949 -1.53035,1.079385 -1.99036,1.462842 -0.45931,0.382761 -1.11974,1.016753 -1.46214,1.399514 -0.33474,0.389023 -0.75856,0.959685 -0.93811,1.267286 -0.18164,0.312472 -0.39668,0.758562 -0.48088,1.000049 -0.0842,0.244967 -0.15241,0.592932 -0.15241,0.772481 0,0.181638 0.0758,0.472536 0.17397,0.66322 0.0898,0.187205 0.27211,0.423821 0.39668,0.527514 0.13084,0.105782 0.43774,0.285332 0.69593,0.405031 0.25054,0.116916 0.85669,0.31804 1.3348,0.442611 0.48714,0.128051 1.316,0.280459 1.84629,0.347964 0.52752,0.07099 1.53035,0.16076 2.22628,0.209475 0.75021,0.04871 2.09335,0.06263 3.33281,0.03549 1.13366,-0.02158 2.60138,-0.07655 3.25694,-0.125267 0.65487,-0.04037 1.69042,-0.132922 2.30214,-0.195556 0.6145,-0.06263 1.22622,-0.125268 1.35914,-0.144058 0.21504,-0.03549 0.25611,-0.07864 0.2909,-0.28533 0.0223,-0.141274 0.19625,-1.636825 0.38346,-3.322364 0.1879,-1.682756 0.43217,-3.70791 0.53587,-4.488046 0.10299,-0.777353 0.24426,-1.968087 0.31247,-2.645226 0.0703,-0.701496 0.18233,-1.348014 0.24984,-1.508773 0.071,-0.151713 0.92697,-1.231099 1.90824,-2.394692 0.98195,-1.160809 1.87343,-2.15042 1.97643,-2.19148 0.10369,-0.04037 0.23662,-0.04871 0.29925,-0.02158 0.0543,0.03549 0.28533,0.280459 0.5136,0.549088 0.23104,0.26654 0.65556,0.775264 0.94924,1.123229 0.29855,0.347964 0.98683,1.168464 1.54357,1.815678 0.54909,0.647214 1.02232,1.209525 1.0439,1.253368 0.0271,0.04037 0.16075,1.299299 0.28532,2.796938 0.13362,1.495551 0.34031,3.770542 0.47323,5.059403 0.12528,1.28538 0.25054,2.364766 0.28534,2.391907 0.0271,0.02992 0.89705,-0.130139 1.92772,-0.353531 1.03554,-0.222698 2.0523,-0.453747 2.64523,-0.619377 l -0.0494,-16.180346 -0.3424,-0.307601 c -0.17955,-0.165631 -0.33127,-0.347964 -0.33127,-0.402247 0,-0.04871 0.33127,-0.516379 0.7363,-1.038325 0.4106,-0.513596 1.07103,-1.334792 1.47606,-1.815679 0.40226,-0.486454 0.76413,-0.910971 0.81285,-0.938112 0.0438,-0.03549 0.18234,-0.05707 0.29925,-0.04314 0.17398,0.01322 0.3424,0.146841 0.69593,0.565094 0.24983,0.290898 0.89983,1.071034 1.42735,1.726599 0.5296,0.646518 1.00283,1.25824 1.05711,1.356366 0.0494,0.08978 0.071,0.236616 0.0494,0.320823 -0.0223,0.08977 -0.17398,0.219914 -0.65556,0.46488 l 0.0438,0.39668 c 0.0215,0.222697 0.12458,1.837948 0.22827,3.590993 0.10579,1.748173 0.20391,3.487995 0.23105,3.868669 0.0188,0.383456 0.12457,2.055077 0.23661,3.71626 0.11136,1.67162 0.20878,3.041905 0.20878,3.049559 0.006,0.01392 0.61729,-0.168414 1.35706,-0.396679 0.7363,-0.231048 2.11493,-0.690361 3.06905,-1.025103 0.94577,-0.331262 1.89223,-0.679227 2.10658,-0.763433 0.20947,-0.08421 1.05224,-0.424518 1.8811,-0.766915 0.82119,-0.334045 1.73216,-0.72307 2.03071,-0.861559 0.29369,-0.13849 0.93255,-0.432172 1.41343,-0.647214 0.48716,-0.21713 1.4197,-0.68201 2.07457,-1.029975 0.65209,-0.347964 1.73147,-0.968037 2.40026,-1.378635 0.66879,-0.40503 1.69945,-1.100959 2.29726,-1.538699 0.60337,-0.432172 1.2311,-0.910275 1.39742,-1.057116 0.16842,-0.152408 0.66322,-0.620072 1.10096,-1.043893 0.43218,-0.432172 0.99449,-1.035542 1.24502,-1.356365 0.24984,-0.313168 0.57067,-0.766914 0.70915,-0.995178 0.19625,-0.329175 0.29925,-0.423821 0.46001,-0.440523 0.15172,-0.01322 0.21435,0.02158 0.24427,0.133618 0.0188,0.08421 -0.0355,0.369538 -0.1197,0.633295 -0.0898,0.263757 -0.26375,0.668788 -0.39668,0.897053 -0.12526,0.236615 -0.36675,0.614505 -0.54074,0.850424 -0.17398,0.228961 -0.55186,0.695929 -0.83789,1.030671 -0.28534,0.339614 -0.89706,0.959686 -1.36959,1.383507 -0.47323,0.418949 -1.19073,1.016752 -1.59298,1.329224 -0.4106,0.3076 -1.20466,0.875478 -1.77532,1.258935 -0.57066,0.383457 -1.64239,1.052245 -2.37868,1.476065 -0.73978,0.432172 -1.94373,1.084953 -2.68072,1.454492 -0.74464,0.369538 -1.97087,0.945767 -2.72943,1.280509 -0.75787,0.334046 -2.37868,1.002833 -3.60421,1.476065 -1.21788,0.478103 -2.82478,1.062683 -3.56107,1.293731 -0.73978,0.236616 -1.51713,0.486454 -1.72661,0.55744 -0.20947,0.0682 -0.39111,0.130138 -0.39667,0.138489 -0.008,0.0084 0.0355,0.660437 0.0898,1.46841 0.0627,0.80171 0.19556,2.748223 0.29856,4.327286 0.11204,1.582542 0.21782,3.188746 0.23661,3.572202 0.0271,0.375106 0.0627,0.812846 0.0842,0.973605 0.0271,0.244271 0.0627,0.285331 0.22339,0.285331 0.103,0 0.24149,0.05707 0.30412,0.119699 0.0654,0.06193 0.13362,0.255406 0.1552,0.437044 0.0188,0.179549 0.10299,0.968044 0.1872,1.745397 0.0842,0.780132 0.25819,2.542226 0.38902,3.911812 0.13292,1.370284 0.42939,2.56937 0.48645,2.84078 l 45.20824,0.05476 0.0299,0.875008 -31.3328,-0.04597 c -12.01034,-0.0084 -14.64165,0.0759 -14.7182,-0.0084 -0.0627,-0.05427 -0.19556,-1.008398 -0.28533,-1.837251 -0.0842,-0.758564 -0.24984,-2.539447 -0.38346,-3.952876 -0.12456,-1.410651 -0.24984,-2.726648 -0.27141,-2.92777 -0.0327,-0.35632 -0.0494,-0.369542 -0.34031,-0.440522 -0.20112,-0.05427 -0.33404,-0.138496 -0.38276,-0.249844 -0.041,-0.09813 -0.12527,-1.084954 -0.19625,-2.204703 -0.0627,-1.12323 -0.17398,-2.881841 -0.23662,-3.911816 -0.0675,-1.039022 -0.15728,-2.533877 -0.21434,-3.332804 -0.071,-1.217875 -0.1037,-1.454491 -0.20112,-1.435701 -0.0627,0.01392 -1.12045,0.306905 -4.6001,1.280509 l -0.0348,10.19675 -0.62008,0.318042 -0.0139,4.018297 c -0.0132,3.164382 -0.0348,4.041955 -0.11135,4.118501 -0.0758,0.0703 -0.55674,0.102999 -1.76696,0.1197 -1.39186,0.01324 -1.68554,0 -1.78297,-0.09812 -0.0814,-0.09256 -0.15241,-0.570664 -0.27211,-1.92216 -0.0814,-0.986821 -0.26932,-3.144901 -0.42382,-4.787287 -0.14406,-1.65005 -0.33475,-3.631364 -0.41617,-4.412196 -0.0842,-0.780135 -0.24427,-2.470547 -0.35631,-3.759407 -0.11135,-1.286077 -0.20878,-2.351543 -0.20878,-2.364767 -0.006,-0.01392 -0.77248,0.1197 -1.69668,0.285332 -0.93254,0.173981 -2.22627,0.40503 -2.87627,0.513595 -0.65209,0.105781 -1.58463,0.258189 -2.07108,0.342397 -0.48924,0.07655 -1.33758,0.201123 -2.91177,0.418949 l -0.0404,0.269324 c -0.0223,0.146842 -0.16076,1.323657 -0.3076,2.609733 -0.15241,1.279814 -0.38834,3.237462 -0.53517,4.33007 -0.14406,1.098183 -0.43774,3.403789 -0.65279,5.122039 -0.20947,1.71755 -0.44052,3.721132 -0.48088,3.805342 m 17.20197,-37.914209 0.37788,0.383456 c 0,12.686783 0.0271,16.389125 0.055,16.403043 0.0348,0.02158 0.785,-0.146841 1.67162,-0.369538 0.88313,-0.228265 1.88388,-0.492022 2.21305,-0.590148 0.33962,-0.105781 0.62495,-0.231048 0.64652,-0.299249 0.0195,-0.06193 -0.0215,-1.011185 -0.0925,-2.10936 -0.0675,-1.092608 -0.17886,-2.595815 -0.24149,-3.332804 -0.0571,-0.739076 -0.19556,-2.792066 -0.29926,-4.566685 -0.10577,-1.766963 -0.23104,-3.653626 -0.2721,-4.175573 l -0.0759,-0.959686 0.42382,-0.418949 c -0.95412,-1.14689 -1.41343,-1.709897 -1.6417,-1.989661 -0.23104,-0.277675 -0.46766,-0.514291 -0.53516,-0.521946 -0.0793,-0.01392 -0.51708,0.459313 -1.17751,1.26659 z m -12.07228,6.271711 c -0.78571,0.910274 -1.44893,1.71268 -1.46841,1.761395 -0.0215,0.05428 -0.23105,1.821246 -0.45931,3.930606 -0.23662,2.110056 -0.51638,4.510315 -0.62773,5.330815 -0.1037,0.821197 -0.21504,1.712682 -0.24218,1.982005 -0.0487,0.467665 -0.0432,0.489239 0.10369,0.446091 0.0842,-0.02714 0.58458,-0.103693 1.11418,-0.166327 0.52195,-0.07029 1.62847,-0.231048 2.44967,-0.35562 0.8205,-0.125266 1.89223,-0.299249 2.37868,-0.380672 0.48924,-0.08421 1.36472,-0.25819 1.95696,-0.383457 0.59015,-0.132923 1.0766,-0.236616 1.0766,-0.244271 0.008,-0.01392 -0.0682,-0.932545 -0.16563,-2.052991 -0.0981,-1.114182 -0.21505,-2.498384 -0.26376,-3.060695 -0.0438,-0.570661 -0.16841,-1.783666 -0.27211,-2.688373 -0.103,-0.902619 -0.18163,-1.766963 -0.18163,-1.919372 0,-0.217826 -0.0898,-0.375105 -0.52195,-0.891485 -0.28603,-0.340309 -1.02231,-1.223443 -1.63404,-1.954864 -0.62007,-0.731421 -1.17681,-1.373067 -1.23945,-1.42735 -0.0898,-0.07586 -0.15241,-0.04871 -0.34031,0.152408 -0.13292,0.138491 -0.87756,1.002834 -1.66327,1.922157 z m 7.25785,13.70075 c -0.0132,0 0,0.272109 0.0223,0.600587 0.0188,0.326391 0.0758,0.919322 0.11691,1.321569 0.0348,0.39668 0.20879,2.297261 0.37511,4.215937 0.16841,1.922155 0.4106,4.545811 0.53517,5.826319 0.13362,1.288163 0.28533,2.895068 0.34796,3.568723 0.0627,0.677141 0.11136,1.267285 0.11136,1.324352 0,0.06751 0.28045,0.09743 1.11487,0.09743 h 1.11488 c 0,-6.494412 0.0271,-8.037977 0.0759,-8.127753 0.041,-0.09256 0.19277,-0.209477 0.33961,-0.272112 l 0.27211,-0.119699 c 0,-8.440922 -0.0215,-9.430533 -0.0981,-9.422182 -0.0487,0.0084 -1.04389,0.228265 -2.2047,0.494806 -1.15524,0.272108 -2.11771,0.492021 -2.12328,0.492021 z m 21.14169,-38.553042 c 0.9054,-0.0056 2.28891,0.02158 3.06974,0.06263 0.78014,0.04037 1.89988,0.132922 2.49281,0.195556 0.58946,0.0675 1.50321,0.201124 2.03073,0.304121 0.5296,0.09813 1.33687,0.3076 1.80176,0.459313 0.46766,0.155192 1.15593,0.4273 1.53104,0.60685 0.50246,0.244271 0.85042,0.480887 1.26102,0.855993 0.45166,0.42382 0.62564,0.654869 0.87548,1.176815 0.3069,0.611721 0.32082,0.688273 0.34797,1.454491 0.0215,0.60337 -0.006,0.924194 -0.1037,1.272158 -0.0703,0.250534 -0.23104,0.70428 -0.35562,0.995179 -0.12527,0.293682 -0.42451,0.82885 -0.66043,1.190734 -0.26376,0.389024 -0.83512,1.052244 -1.43292,1.655615 -0.54909,0.557439 -1.34314,1.280509 -1.76696,1.614555 -0.42661,0.334741 -1.2666,0.932545 -1.8811,1.337575 -0.61173,0.402246 -1.61525,1.013968 -2.22628,1.370283 -0.60685,0.356316 -1.62847,0.897053 -2.26177,1.203958 -0.63399,0.313168 -1.50877,0.72307 -1.95486,0.919321 -0.44052,0.187205 -1.39186,0.562311 -2.10936,0.834419 -0.7182,0.263757 -1.59298,0.557439 -1.95486,0.647214 -0.35632,0.08421 -0.75857,0.151712 -0.89984,0.151712 -0.17398,0 -0.31804,-0.0675 -0.4781,-0.228264 -0.17399,-0.173982 -0.23106,-0.29925 -0.23106,-0.513596 0,-0.160759 0.0571,-0.377889 0.13293,-0.481583 0.0758,-0.09743 0.36188,-0.28533 0.63329,-0.409902 0.27768,-0.119699 1.16917,-0.494805 1.99802,-0.829546 0.8212,-0.339614 2.21862,-0.972909 3.10176,-1.410648 0.88661,-0.440523 2.04185,-1.038326 2.56936,-1.337576 0.5296,-0.299249 1.51156,-0.910971 2.18522,-1.356365 0.67436,-0.446091 1.62012,-1.133668 2.11005,-1.525476 0.48646,-0.388328 1.12532,-0.945767 1.42387,-1.231099 0.29925,-0.290898 0.73143,-0.750211 0.96247,-1.022319 0.22827,-0.279763 0.50873,-0.620072 0.62008,-0.766217 0.10856,-0.152409 0.32638,-0.527514 0.4781,-0.848338 0.15241,-0.329174 0.29925,-0.752994 0.32639,-0.995178 0.0355,-0.299249 0.0167,-0.521946 -0.0758,-0.766218 -0.0766,-0.209474 -0.26376,-0.473231 -0.47323,-0.674354 -0.19278,-0.173983 -0.54909,-0.424517 -0.79406,-0.543521 -0.23592,-0.125267 -0.72794,-0.313168 -1.09261,-0.424516 -0.35353,-0.102998 -1.04389,-0.276981 -1.53035,-0.383457 -0.48645,-0.102998 -1.24501,-0.241488 -1.68276,-0.304121 -0.44608,-0.06542 -1.51712,-0.16076 -2.38146,-0.209475 -0.95134,-0.05707 -2.44132,-0.07029 -3.79212,-0.04314 -1.22623,0.02158 -2.74335,0.09743 -3.37664,0.160064 -0.6333,0.06263 -2.06552,0.258189 -3.18597,0.432172 -1.11418,0.173981 -2.6313,0.432172 -3.36829,0.576229 -0.7363,0.146841 -1.93538,0.418949 -2.6501,0.614505 -0.7182,0.192772 -1.85117,0.500373 -2.52831,0.687578 -0.67435,0.182333 -2.17756,0.661132 -3.34115,1.057811 -1.15246,0.39668 -2.84635,1.025103 -3.74897,1.391858 -0.91306,0.369538 -2.37312,0.995178 -3.2646,1.400209 -0.88383,0.402247 -2.22628,1.035542 -2.99319,1.418999 -0.75857,0.375106 -1.82403,0.932544 -2.37312,1.225531 -0.54909,0.299249 -1.58463,0.875478 -2.30283,1.286076 -0.7175,0.410598 -1.97574,1.155242 -2.79694,1.663966 -0.8212,0.499677 -2.28891,1.448923 -3.25695,2.095441 -0.97568,0.647215 -2.24785,1.544267 -2.84078,1.982006 -0.58945,0.440523 -1.6062,1.239449 -2.26177,1.775314 -0.65208,0.53517 -1.55192,1.307651 -1.98966,1.725904 -0.44609,0.410598 -1.13366,1.084953 -1.53869,1.503206 -0.39668,0.410599 -0.75021,0.750908 -0.78571,0.750908 -0.0271,0.0076 -0.11135,-0.01392 -0.17398,-0.03271 -0.0627,-0.02227 -0.11135,-0.09813 -0.11135,-0.173982 -0.008,-0.07099 0.1872,-0.4273 0.42382,-0.788487 0.24497,-0.353532 0.65557,-0.924194 0.91376,-1.258936 0.26375,-0.342397 0.80727,-0.981259 1.20117,-1.418999 0.40503,-0.445394 1.26172,-1.293732 1.9138,-1.894318 0.65,-0.598499 1.52548,-1.370284 1.9493,-1.718248 0.42382,-0.347964 1.28886,-1.016752 1.91381,-1.489984 0.63329,-0.472535 1.49764,-1.092608 1.92215,-1.383507 0.42382,-0.293681 1.1963,-0.815628 1.7259,-1.155241 0.52751,-0.342398 1.44128,-0.913755 2.03072,-1.274942 0.59293,-0.361883 1.74817,-1.030671 2.56937,-1.495551 0.82051,-0.467664 2.14973,-1.168465 2.94935,-1.573495 0.80171,-0.402943 1.90824,-0.946464 2.45732,-1.210221 0.54909,-0.258189 1.82403,-0.828851 2.838,-1.258239 1.01119,-0.432172 2.44411,-1.016752 3.18109,-1.288861 0.73908,-0.271411 1.73982,-0.641645 2.22071,-0.815627 0.48645,-0.173983 1.62847,-0.540737 2.53388,-0.820501 0.90471,-0.269325 2.23463,-0.652781 2.94935,-0.835114 0.7175,-0.178854 2.04672,-0.494806 2.95769,-0.68201 0.90541,-0.192773 2.03907,-0.416166 2.52831,-0.500373 0.48646,-0.08421 1.43222,-0.222697 2.10658,-0.306905 0.67714,-0.08142 1.71268,-0.187901 2.30561,-0.236616 0.58945,-0.04106 1.24502,-0.08977 1.4538,-0.103694 0.20668,-0.01322 1.12601,-0.02714 2.03072,-0.0348 z"
       style="fill:#0000cc;fill-opacity:1;fill-rule:evenodd;stroke:none;stroke-width:0.695929;filter:url(#filter44)"
       sodipodi:nodetypes="cccsccccccccccccccccccccccccccscsccccccccccscccccccccccccccccccccccccccccscccccccccccccccccccccccccccccccccccscccccccccccscccccccccccccccccccccccccccccccccccccccccccccccccccccccccccccccccccccscccccccccccssccccccsccccccccccccccccccccscsccccccccccccccccccccscccccccccccccccccccccccsccccccccccccccccccsc" />
    <g
       id="g2"
       transform="matrix(0.82228254,0,0,0.82228254,-27.167016,-3.6496691)">
      <g
         id="g4"
         clip-path="url(#clipPath116)"
         transform="matrix(0.63475342,0,0,0.63475342,45.204517,40.83554)">
        <path
           d="m 35.336,8.109 h 75.656 V 47.886 H 35.336 Z"
           style="fill:#0000cc;fill-opacity:1;fill-rule:evenodd;stroke:none;filter:url(#filter39)"
           transform="scale(1.3333333)"
           clip-path="url(#clipPath3)"
           id="path4" />
      </g>
      <path
         d="m 98.797,120.352 c -0.828,-8.157 0.82,-12.516 2.406,-16.723 1.57,-4.152 3.188,-8.449 2.375,-16.484 C 102.766,79.109 100.32,75.223 97.953,71.465 95.551,67.66 93.066,63.719 92.242,55.559 91.414,47.402 93.066,43.051 94.652,38.836 96.223,34.688 97.84,30.391 97.027,22.355 96.223,14.324 93.766,10.449 91.398,6.691 89,2.883 86.512,-1.059 85.691,-9.215 c -0.828,-8.156 0.821,-12.508 2.407,-16.723 1.57,-4.152 3.187,-8.445 2.375,-16.484 l 0.531,-0.055 c 0.828,8.157 -0.82,12.508 -2.406,16.723 -1.571,4.152 -3.188,8.445 -2.375,16.484 0.812,8.036 3.261,11.922 5.625,15.672 2.402,3.805 4.886,7.746 5.711,15.903 0.828,8.156 -0.825,12.507 -2.411,16.726 -1.566,4.149 -3.187,8.446 -2.375,16.481 0.817,8.035 3.262,11.922 5.629,15.679 2.399,3.805 4.887,7.747 5.707,15.907 0.832,8.156 -0.82,12.515 -2.406,16.722 -1.57,4.149 -3.187,8.446 -2.375,16.481 z"
         style="fill:#ffffff;fill-opacity:1;fill-rule:nonzero;stroke:none"
         transform="matrix(0.84633787,0,0,0.84633787,45.204517,40.83554)"
         clip-path="url(#clipPath121)"
         id="path7" />
      <path
         d="m 113.441,118.883 c -0.828,-8.16 0.821,-12.52 2.407,-16.727 1.57,-4.148 3.187,-8.445 2.375,-16.48 -0.813,-8.035 -3.262,-11.922 -5.629,-15.68 -2.399,-3.805 -4.875,-7.738 -5.707,-15.906 -0.828,-8.156 0.824,-12.508 2.41,-16.723 1.566,-4.152 3.187,-8.445 2.371,-16.484 -0.805,-8.028 -3.258,-11.914 -5.625,-15.668 -2.398,-3.809 -4.887,-7.75 -5.707,-15.906 -0.832,-8.157 0.82,-12.508 2.406,-16.723 1.57,-4.152 3.188,-8.445 2.375,-16.484 l 0.531,-0.055 c 0.829,8.156 -0.82,12.508 -2.406,16.723 -1.57,4.152 -3.187,8.445 -2.375,16.484 0.813,8.043 3.258,11.922 5.625,15.68 2.399,3.804 4.887,7.746 5.711,15.902 0.828,8.156 -0.824,12.508 -2.41,16.723 -1.57,4.152 -3.188,8.449 -2.375,16.484 0.812,8.035 3.262,11.922 5.629,15.68 2.398,3.804 4.887,7.746 5.707,15.906 0.82,8.156 -0.82,12.516 -2.406,16.723 -1.571,4.148 -3.188,8.445 -2.375,16.48 z"
         style="fill:#ffffff;fill-opacity:1;fill-rule:nonzero;stroke:none"
         transform="matrix(0.84633787,0,0,0.84633787,45.204517,40.83554)"
         clip-path="url(#clipPath117)"
         id="path10" />
      <path
         d="m 108.562,119.371 c -0.828,-8.156 0.821,-12.516 2.407,-16.723 1.57,-4.152 3.187,-8.445 2.375,-16.484 -0.813,-8.035 -3.262,-11.922 -5.625,-15.68 -2.403,-3.804 -4.887,-7.746 -5.711,-15.902 -0.828,-8.16 0.824,-12.512 2.41,-16.727 1.566,-4.148 3.187,-8.445 2.375,-16.48 -0.816,-8.027 -3.262,-11.914 -5.629,-15.664 -2.398,-3.805 -4.887,-7.746 -5.707,-15.906 -0.832,-8.157 0.82,-12.508 2.406,-16.723 1.571,-4.148 3.188,-8.445 2.375,-16.48 l 0.532,-0.059 c 0.82,8.164 -0.821,12.516 -2.407,16.723 -1.57,4.152 -3.187,8.449 -2.375,16.484 0.805,8.035 3.258,11.914 5.625,15.672 2.403,3.805 4.887,7.746 5.711,15.906 0.828,8.156 -0.824,12.508 -2.41,16.723 -1.57,4.148 -3.187,8.445 -2.375,16.48 0.816,8.039 3.262,11.922 5.629,15.68 2.398,3.809 4.887,7.75 5.707,15.906 0.82,8.156 -0.82,12.516 -2.406,16.723 -1.571,4.152 -3.188,8.445 -2.375,16.484 z"
         style="fill:#ffffff;fill-opacity:1;fill-rule:nonzero;stroke:none"
         transform="matrix(0.84633787,0,0,0.84633787,45.204517,40.83554)"
         clip-path="url(#clipPath118)"
         id="path13" />
      <path
         d="m 103.676,119.859 c -0.828,-8.156 0.82,-12.515 2.406,-16.722 1.57,-4.149 3.188,-8.446 2.375,-16.481 -0.812,-8.039 -3.262,-11.926 -5.625,-15.679 -2.402,-3.809 -4.887,-7.75 -5.711,-15.907 -0.828,-8.156 0.824,-12.508 2.41,-16.722 1.567,-4.153 3.188,-8.446 2.375,-16.485 C 101.098,13.836 98.652,9.949 96.277,6.199 93.879,2.395 91.391,-1.547 90.57,-9.703 c -0.82,-8.168 0.821,-12.52 2.407,-16.723 1.57,-4.152 3.187,-8.449 2.375,-16.484 l 0.531,-0.055 c 0.828,8.156 -0.821,12.508 -2.406,16.723 -1.571,4.148 -3.188,8.445 -2.375,16.48 0.812,8.039 3.257,11.922 5.625,15.672 2.402,3.809 4.886,7.75 5.711,15.906 0.828,8.157 -0.825,12.508 -2.411,16.723 -1.57,4.152 -3.187,8.445 -2.375,16.484 0.817,8.036 3.262,11.922 5.629,15.68 2.399,3.805 4.887,7.746 5.707,15.902 0.828,8.161 -0.82,12.52 -2.406,16.727 -1.57,4.148 -3.187,8.445 -2.375,16.48 z"
         style="fill:#ffffff;fill-opacity:1;fill-rule:nonzero;stroke:none"
         transform="matrix(0.84633787,0,0,0.84633787,45.204517,40.83554)"
         clip-path="url(#clipPath119)"
         id="path16" />
      <path
         d="m 93.918,120.84 c -0.828,-8.156 0.82,-12.516 2.406,-16.723 1.571,-4.152 3.188,-8.445 2.375,-16.484 C 97.887,79.598 95.441,75.711 93.074,71.953 90.676,68.148 88.188,64.207 87.367,56.051 86.535,47.895 88.188,43.543 89.773,39.328 91.344,35.176 92.961,30.879 92.148,22.844 91.336,14.816 88.887,10.938 86.52,7.18 84.113,3.375 81.633,-0.559 80.812,-8.727 c -0.828,-8.156 0.821,-12.507 2.407,-16.722 1.57,-4.149 3.187,-8.446 2.375,-16.481 l 0.531,-0.058 c 0.828,8.16 -0.82,12.508 -2.406,16.726 -1.571,4.149 -3.188,8.446 -2.375,16.481 0.804,8.035 3.261,11.922 5.629,15.679 2.398,3.805 4.886,7.75 5.707,15.907 0.828,8.156 -0.821,12.507 -2.407,16.722 -1.57,4.141 -3.191,8.438 -2.386,16.473 0.816,8.039 3.261,11.926 5.629,15.68 2.398,3.808 4.886,7.75 5.707,15.906 0.832,8.156 -0.821,12.516 -2.407,16.723 -1.57,4.152 -3.187,8.445 -2.375,16.484 z"
         style="fill:#ffffff;fill-opacity:1;fill-rule:nonzero;stroke:none"
         transform="matrix(0.84633787,0,0,0.84633787,45.204517,40.83554)"
         clip-path="url(#clipPath120)"
         id="path19" />
      <path
         d="m 89.031,121.34 c -0.828,-8.16 0.821,-12.52 2.407,-16.727 1.57,-4.148 3.187,-8.445 2.374,-16.48 C 93,80.094 90.555,76.211 88.188,72.453 85.789,68.648 83.301,64.703 82.48,56.547 81.648,48.391 83.301,44.039 84.887,39.824 86.457,35.672 88.074,31.379 87.262,23.34 86.457,15.312 84.008,11.426 81.633,7.668 79.234,3.863 76.746,-0.078 75.926,-8.234 c -0.828,-8.157 0.82,-12.508 2.406,-16.723 1.57,-4.152 3.188,-8.449 2.375,-16.484 l 0.531,-0.055 c 0.828,8.156 -0.82,12.508 -2.406,16.723 -1.57,4.152 -3.187,8.445 -2.375,16.48 0.813,8.047 3.262,11.926 5.629,15.684 2.398,3.804 4.887,7.746 5.707,15.902 0.828,8.156 -0.813,12.508 -2.398,16.723 -1.571,4.152 -3.192,8.445 -2.375,16.484 0.812,8.035 3.257,11.922 5.625,15.68 2.398,3.804 4.886,7.746 5.707,15.902 0.824,8.16 -0.821,12.52 -2.407,16.727 -1.57,4.148 -3.187,8.445 -2.375,16.48 z"
         style="fill:#ffffff;fill-opacity:1;fill-rule:nonzero;stroke:none"
         transform="matrix(0.84633787,0,0,0.84633787,45.204517,40.83554)"
         clip-path="url(#clipPath133)"
         id="path22" />
      <path
         d="m 84.152,121.828 c -0.828,-8.156 0.821,-12.516 2.407,-16.723 1.57,-4.152 3.191,-8.445 2.375,-16.484 -0.813,-8.035 -3.258,-11.922 -5.625,-15.68 -2.399,-3.804 -4.887,-7.746 -5.707,-15.902 -0.832,-8.16 0.82,-12.512 2.406,-16.727 1.57,-4.148 3.187,-8.445 2.375,-16.48 C 81.578,15.801 79.121,11.918 76.754,8.168 74.355,4.363 71.867,0.418 71.047,-7.738 c -0.828,-8.157 0.82,-12.508 2.406,-16.723 1.57,-4.152 3.188,-8.445 2.375,-16.48 L 76.359,-41 c 0.829,8.156 -0.82,12.508 -2.406,16.723 -1.57,4.152 -3.187,8.449 -2.375,16.484 0.813,8.035 3.262,11.922 5.629,15.672 2.398,3.805 4.887,7.746 5.707,15.902 0.828,8.16 -0.82,12.512 -2.406,16.727 -1.57,4.148 -3.192,8.445 -2.375,16.48 0.812,8.039 3.258,11.922 5.625,15.68 2.398,3.805 4.887,7.75 5.707,15.906 0.824,8.156 -0.82,12.516 -2.406,16.723 -1.571,4.152 -3.188,8.445 -2.375,16.484 z"
         style="fill:#ffffff;fill-opacity:1;fill-rule:nonzero;stroke:none"
         transform="matrix(0.84633787,0,0,0.84633787,45.204517,40.83554)"
         clip-path="url(#clipPath137)"
         id="path25" />
      <path
         d="m 79.273,122.316 c -0.828,-8.156 0.821,-12.515 2.407,-16.722 1.57,-4.149 3.191,-8.446 2.375,-16.481 C 83.242,81.074 80.797,77.188 78.43,73.434 76.031,69.625 73.543,65.684 72.723,57.527 71.891,49.371 73.543,45.02 75.129,40.805 76.699,36.652 78.316,32.359 77.504,24.32 76.691,16.293 74.242,12.406 71.875,8.648 69.477,4.844 66.988,0.902 66.168,-7.254 c -0.828,-8.16 0.812,-12.512 2.406,-16.719 1.571,-4.148 3.188,-8.445 2.375,-16.48 l 0.531,-0.059 c 0.832,8.16 -0.82,12.512 -2.406,16.727 -1.57,4.148 -3.187,8.445 -2.375,16.48 0.805,8.039 3.262,11.914 5.629,15.672 2.399,3.805 4.887,7.75 5.707,15.906 0.828,8.157 -0.82,12.508 -2.406,16.723 -1.57,4.152 -3.188,8.445 -2.383,16.484 0.813,8.036 3.258,11.922 5.625,15.68 2.399,3.805 4.887,7.746 5.707,15.902 0.832,8.157 -0.82,12.516 -2.406,16.723 -1.57,4.153 -3.188,8.449 -2.375,16.485 z"
         style="fill:#ffffff;fill-opacity:1;fill-rule:nonzero;stroke:none"
         transform="matrix(0.84633787,0,0,0.84633787,45.204517,40.83554)"
         clip-path="url(#clipPath134)"
         id="path28" />
      <path
         d="m 74.387,122.809 c -0.828,-8.157 0.82,-12.52 2.406,-16.727 1.57,-4.148 3.191,-8.445 2.375,-16.48 C 78.355,81.566 75.91,77.68 73.543,73.922 71.145,70.117 68.656,66.176 67.836,58.016 67.012,49.859 68.656,45.508 70.242,41.301 71.812,37.152 73.43,32.855 72.617,24.82 71.805,16.781 69.355,12.895 66.988,9.148 64.59,5.332 62.109,1.398 61.281,-6.758 c -0.828,-8.156 0.821,-12.508 2.407,-16.722 1.57,-4.153 3.187,-8.446 2.374,-16.485 l 0.532,-0.055 c 0.832,8.157 -0.821,12.508 -2.406,16.723 -1.571,4.152 -3.188,8.445 -2.376,16.485 0.813,8.035 3.262,11.921 5.629,15.671 2.399,3.805 4.887,7.746 5.707,15.903 0.829,8.156 -0.82,12.508 -2.406,16.722 -1.57,4.153 -3.187,8.45 -2.375,16.485 0.813,8.035 3.258,11.922 5.625,15.679 2.399,3.805 4.887,7.747 5.707,15.907 0.832,8.156 -0.82,12.515 -2.406,16.722 -1.57,4.149 -3.188,8.446 -2.375,16.481 z"
         style="fill:#ffffff;fill-opacity:1;fill-rule:nonzero;stroke:none"
         transform="matrix(0.84633787,0,0,0.84633787,45.204517,40.83554)"
         clip-path="url(#clipPath135)"
         id="path31" />
      <path
         d="m 69.508,123.297 c -0.828,-8.156 0.824,-12.516 2.41,-16.723 1.566,-4.152 3.187,-8.445 2.375,-16.484 C 73.477,82.055 71.031,78.168 68.664,74.41 66.266,70.605 63.777,66.664 62.957,58.508 62.125,50.348 63.777,46 65.363,41.781 66.934,37.633 68.551,33.336 67.738,25.301 66.926,17.266 64.477,13.379 62.109,9.629 59.711,5.824 57.223,1.883 56.402,-6.277 55.574,-14.434 57.223,-18.785 58.809,-23 c 1.57,-4.148 3.187,-8.445 2.375,-16.48 l 0.531,-0.059 c 0.832,8.156 -0.82,12.508 -2.406,16.723 -1.571,4.152 -3.188,8.449 -2.375,16.484 0.812,8.043 3.261,11.93 5.628,15.68 2.399,3.804 4.887,7.746 5.708,15.906 0.828,8.156 -0.821,12.508 -2.407,16.723 -1.57,4.148 -3.187,8.445 -2.375,16.48 0.813,8.039 3.258,11.926 5.625,15.68 2.403,3.808 4.887,7.75 5.711,15.906 0.821,8.156 -0.824,12.516 -2.41,16.723 -1.57,4.152 -3.187,8.445 -2.375,16.484 z"
         style="fill:#ffffff;fill-opacity:1;fill-rule:nonzero;stroke:none"
         transform="matrix(0.84633787,0,0,0.84633787,45.204517,40.83554)"
         clip-path="url(#clipPath136)"
         id="path34" />
      <path
         d="m 64.629,123.785 c -0.828,-8.156 0.824,-12.515 2.41,-16.723 1.57,-4.148 3.188,-8.445 2.375,-16.48 C 68.598,82.543 66.152,78.66 63.785,74.902 61.387,71.094 58.898,67.152 58.078,58.996 57.25,50.84 58.898,46.488 60.484,42.273 62.055,38.129 63.672,33.836 62.859,25.797 62.047,17.762 59.598,13.875 57.23,10.125 54.832,6.32 52.344,2.379 51.523,-5.777 c -0.828,-8.157 0.821,-12.508 2.407,-16.723 1.57,-4.152 3.191,-8.449 2.375,-16.484 l 0.531,-0.055 c 0.824,8.164 -0.82,12.516 -2.406,16.723 -1.571,4.148 -3.188,8.445 -2.375,16.48 0.804,8.039 3.261,11.926 5.629,15.68 2.398,3.808 4.886,7.75 5.707,15.906 0.828,8.156 -0.821,12.508 -2.407,16.723 -1.57,4.152 -3.187,8.445 -2.375,16.484 0.813,8.035 3.258,11.922 5.625,15.68 2.403,3.804 4.887,7.746 5.711,15.902 0.828,8.16 -0.824,12.52 -2.41,16.727 -1.566,4.148 -3.187,8.445 -2.375,16.48 z"
         style="fill:#ffffff;fill-opacity:1;fill-rule:nonzero;stroke:none"
         transform="matrix(0.84633787,0,0,0.84633787,45.204517,40.83554)"
         clip-path="url(#clipPath127)"
         id="path37" />
      <path
         d="m 59.742,124.277 c -0.828,-8.156 0.824,-12.515 2.41,-16.722 1.571,-4.153 3.188,-8.45 2.375,-16.485 C 63.711,83.035 61.266,79.148 58.898,75.391 56.5,71.586 54.012,67.645 53.191,59.484 52.363,51.328 54.012,46.977 55.598,42.762 57.168,38.613 58.785,34.316 57.973,26.281 57.16,18.242 54.711,14.359 52.344,10.609 49.945,6.801 47.457,2.859 46.637,-5.297 c -0.828,-8.156 0.82,-12.508 2.406,-16.723 1.57,-4.152 3.191,-8.445 2.375,-16.484 l 0.531,-0.055 c 0.832,8.157 -0.82,12.508 -2.406,16.723 -1.563,4.168 -3.188,8.453 -2.375,16.492 0.812,8.035 3.262,11.922 5.629,15.68 2.398,3.805 4.887,7.746 5.707,15.902 0.828,8.16 -0.82,12.512 -2.406,16.727 -1.571,4.148 -3.188,8.445 -2.375,16.48 0.812,8.028 3.261,11.914 5.632,15.672 2.403,3.805 4.887,7.75 5.711,15.906 0.829,8.157 -0.824,12.516 -2.41,16.723 -1.566,4.152 -3.187,8.445 -2.375,16.484 z"
         style="fill:#ffffff;fill-opacity:1;fill-rule:nonzero;stroke:none"
         transform="matrix(0.84633787,0,0,0.84633787,45.204517,40.83554)"
         clip-path="url(#clipPath128)"
         id="path40" />
      <path
         d="m 54.863,124.773 c -0.828,-8.156 0.825,-12.515 2.41,-16.722 1.571,-4.153 3.188,-8.446 2.375,-16.485 C 58.836,83.531 56.387,79.645 54.02,75.887 51.621,72.082 49.133,68.141 48.312,59.984 47.484,51.828 49.133,47.477 50.719,43.262 52.289,39.109 53.906,34.812 53.094,26.777 52.281,18.742 49.832,14.855 47.465,11.105 45.066,7.301 42.578,3.367 41.758,-4.797 c -0.828,-8.16 0.812,-12.512 2.406,-16.719 1.57,-4.148 3.191,-8.445 2.375,-16.48 l 0.531,-0.059 c 0.832,8.16 -0.82,12.512 -2.406,16.727 -1.57,4.148 -3.187,8.445 -2.375,16.48 0.813,8.039 3.262,11.914 5.629,15.672 2.398,3.805 4.887,7.75 5.707,15.906 0.828,8.157 -0.82,12.508 -2.406,16.723 -1.571,4.152 -3.188,8.445 -2.375,16.485 0.812,8.035 3.261,11.921 5.625,15.679 2.402,3.805 4.886,7.746 5.711,15.903 0.828,8.156 -0.825,12.515 -2.41,16.722 -1.567,4.153 -3.188,8.449 -2.375,16.485 z"
         style="fill:#ffffff;fill-opacity:1;fill-rule:nonzero;stroke:none"
         transform="matrix(0.84633787,0,0,0.84633787,45.204517,40.83554)"
         clip-path="url(#clipPath125)"
         id="path43" />
      <path
         d="m 49.988,125.266 c -0.832,-8.161 0.821,-12.52 2.407,-16.727 1.57,-4.148 3.187,-8.445 2.375,-16.48 C 53.957,84.02 51.508,80.137 49.141,76.379 46.742,72.574 44.254,68.629 43.434,60.473 42.605,52.316 44.254,47.965 45.84,43.75 47.41,39.598 49.027,35.305 48.215,27.266 47.402,19.238 44.953,15.352 42.59,11.605 40.18,7.789 37.703,3.855 36.879,-4.309 c -0.828,-8.156 0.812,-12.507 2.41,-16.714 1.566,-4.153 3.188,-8.446 2.375,-16.485 l 0.531,-0.054 c 0.821,8.164 -0.824,12.515 -2.41,16.722 -1.57,4.152 -3.187,8.445 -2.375,16.485 0.805,8.035 3.262,11.914 5.629,15.671 2.399,3.805 4.887,7.746 5.707,15.903 0.828,8.156 -0.82,12.508 -2.406,16.722 -1.57,4.153 -3.188,8.45 -2.375,16.485 0.812,8.035 3.262,11.922 5.629,15.679 2.398,3.805 4.886,7.747 5.707,15.907 0.828,8.156 -0.821,12.515 -2.406,16.722 -1.571,4.149 -3.192,8.446 -2.375,16.481 z"
         style="fill:#ffffff;fill-opacity:1;fill-rule:nonzero;stroke:none"
         transform="matrix(0.84633787,0,0,0.84633787,45.204517,40.83554)"
         clip-path="url(#clipPath132)"
         id="path46" />
      <path
         d="m 45.102,125.754 c -0.832,-8.156 0.82,-12.516 2.406,-16.723 1.57,-4.152 3.187,-8.445 2.375,-16.484 -0.813,-8.035 -3.262,-11.922 -5.629,-15.68 -2.399,-3.805 -4.879,-7.738 -5.707,-15.902 -0.82,-8.16 0.82,-12.512 2.406,-16.719 1.57,-4.148 3.188,-8.445 2.375,-16.48 -0.805,-8.036 -3.25,-11.914 -5.617,-15.672 -2.41,-3.813 -4.887,-7.746 -5.719,-15.906 -0.82,-8.157 0.824,-12.516 2.41,-16.723 1.567,-4.149 3.196,-8.445 2.383,-16.481 l 0.531,-0.058 c 0.821,8.164 -0.824,12.515 -2.41,16.722 -1.566,4.153 -3.187,8.45 -2.375,16.485 0.809,8.035 3.254,11.922 5.621,15.672 2.399,3.804 4.887,7.746 5.707,15.906 0.829,8.156 -0.82,12.508 -2.406,16.723 -1.57,4.148 -3.187,8.445 -2.375,16.48 0.813,8.039 3.262,11.922 5.629,15.68 2.398,3.808 4.887,7.75 5.707,15.906 0.828,8.156 -0.82,12.516 -2.406,16.723 -1.57,4.152 -3.192,8.445 -2.375,16.484 z"
         style="fill:#ffffff;fill-opacity:1;fill-rule:nonzero;stroke:none"
         transform="matrix(0.84633787,0,0,0.84633787,45.204517,40.83554)"
         clip-path="url(#clipPath123)"
         id="path49" />
      <path
         d="m 54.969,118.23 c -0.805,-8.156 0.855,-12.507 2.457,-16.714 1.586,-4.153 3.219,-8.438 2.429,-16.473 C 59.066,77.004 56.629,73.109 54.277,69.344 51.887,65.531 49.414,61.59 48.609,53.426 47.805,45.266 49.465,40.918 51.074,36.711 52.66,32.559 54.293,28.27 53.496,20.234 52.707,12.199 50.27,8.305 47.918,4.539 45.527,0.734 43.055,-3.219 42.25,-11.375 c -0.805,-8.164 0.852,-12.508 2.465,-16.715 1.586,-4.152 3.219,-8.437 2.422,-16.472 l 0.531,-0.051 c 0.805,8.156 -0.852,12.508 -2.457,16.715 -1.586,4.152 -3.219,8.441 -2.43,16.476 0.789,8.035 3.227,11.93 5.578,15.695 2.391,3.813 4.864,7.766 5.661,15.922 0.804,8.157 -0.852,12.508 -2.465,16.715 -1.586,4.149 -3.219,8.438 -2.422,16.473 0.789,8.039 3.23,11.933 5.578,15.699 2.391,3.813 4.863,7.762 5.66,15.918 0.805,8.164 -0.851,12.508 -2.461,16.715 -1.586,4.144 -3.222,8.441 -2.426,16.476 z"
         style="fill:#ffffff;fill-opacity:1;fill-rule:nonzero;stroke:none"
         transform="matrix(0.84633787,0,0,0.84633787,45.204517,40.83554)"
         clip-path="url(#clipPath122)"
         id="path52" />
      <path
         d="m 40.316,119.66 c -0.804,-8.156 0.856,-12.508 2.457,-16.715 1.586,-4.152 3.219,-8.437 2.43,-16.476 C 44.414,78.434 41.977,74.539 39.625,70.773 37.234,66.961 34.762,63.02 33.957,54.855 33.152,46.688 34.82,42.344 36.422,38.137 38.008,33.988 39.641,29.699 38.844,21.664 38.062,13.625 35.625,9.742 33.266,5.977 30.875,2.16 28.402,-1.789 27.605,-9.945 c -0.804,-8.164 0.856,-12.508 2.465,-16.715 1.586,-4.145 3.219,-8.438 2.422,-16.477 l 0.531,-0.047 c 0.805,8.157 -0.851,12.508 -2.453,16.715 -1.586,4.153 -3.222,8.438 -2.425,16.477 0.796,8.035 3.222,11.922 5.57,15.687 2.39,3.813 4.863,7.754 5.668,15.922 0.805,8.156 -0.852,12.508 -2.453,16.715 -1.586,4.148 -3.223,8.438 -2.426,16.473 0.781,8.039 3.223,11.929 5.574,15.695 2.391,3.816 4.86,7.766 5.656,15.922 0.805,8.164 -0.851,12.508 -2.461,16.715 -1.585,4.144 -3.222,8.437 -2.425,16.476 z"
         style="fill:#ffffff;fill-opacity:1;fill-rule:nonzero;stroke:none"
         transform="matrix(0.84633787,0,0,0.84633787,45.204517,40.83554)"
         clip-path="url(#clipPath129)"
         id="path55" />
      <path
         d="m 45.203,119.18 c -0.805,-8.157 0.856,-12.508 2.457,-16.715 1.586,-4.153 3.219,-8.442 2.43,-16.477 C 49.301,77.953 46.863,74.059 44.512,70.293 42.121,66.48 39.648,62.527 38.852,54.371 38.055,46.215 39.707,41.863 41.316,37.656 42.902,33.504 44.535,29.219 43.738,21.184 42.941,13.152 40.504,9.258 38.152,5.492 35.762,1.68 33.289,-2.27 32.492,-10.426 c -0.804,-8.164 0.856,-12.508 2.457,-16.715 1.586,-4.144 3.219,-8.441 2.422,-16.476 l 0.531,-0.055 c 0.805,8.156 -0.851,12.508 -2.457,16.715 -1.586,4.148 -3.218,8.437 -2.429,16.473 0.789,8.046 3.23,11.933 5.586,15.699 2.382,3.812 4.855,7.762 5.66,15.918 0.804,8.156 -0.852,12.508 -2.461,16.715 -1.586,4.152 -3.223,8.441 -2.426,16.476 0.789,8.035 3.23,11.93 5.578,15.696 2.395,3.812 4.863,7.765 5.66,15.921 0.805,8.164 -0.851,12.508 -2.461,16.715 -1.586,4.141 -3.222,8.438 -2.425,16.473 z"
         style="fill:#ffffff;fill-opacity:1;fill-rule:nonzero;stroke:none"
         transform="matrix(0.84633787,0,0,0.84633787,45.204517,40.83554)"
         clip-path="url(#clipPath130)"
         id="path58" />
      <path
         d="m 50.082,118.703 c -0.805,-8.156 0.856,-12.508 2.457,-16.715 1.586,-4.148 3.219,-8.437 2.422,-16.472 C 54.172,77.477 51.734,73.586 49.383,69.82 46.992,66.004 44.52,62.055 43.723,53.898 42.918,45.742 44.578,41.391 46.188,37.184 47.773,33.031 49.406,28.746 48.609,20.707 47.82,12.68 45.383,8.785 43.031,5.02 c -2.39,-3.813 -4.863,-7.754 -5.668,-15.922 -0.797,-8.164 0.864,-12.508 2.465,-16.715 1.586,-4.141 3.219,-8.438 2.422,-16.473 l 0.531,-0.051 c 0.805,8.161 -0.851,12.512 -2.457,16.719 -1.586,4.149 -3.219,8.438 -2.429,16.473 0.789,8.039 3.226,11.922 5.585,15.687 2.391,3.817 4.864,7.766 5.661,15.922 0.804,8.156 -0.852,12.508 -2.465,16.715 -1.586,4.152 -3.219,8.437 -2.422,16.477 0.789,8.035 3.23,11.929 5.578,15.695 2.391,3.812 4.863,7.762 5.66,15.918 0.805,8.168 -0.851,12.512 -2.461,16.719 -1.586,4.14 -3.222,8.437 -2.426,16.472 z"
         style="fill:#ffffff;fill-opacity:1;fill-rule:nonzero;stroke:none"
         transform="matrix(0.84633787,0,0,0.84633787,45.204517,40.83554)"
         clip-path="url(#clipPath126)"
         id="path61" />
      <path
         d="m 59.848,117.75 c -0.805,-8.156 0.855,-12.508 2.457,-16.715 1.586,-4.152 3.218,-8.437 2.429,-16.476 -0.789,-8.036 -3.226,-11.93 -5.578,-15.696 -2.39,-3.812 -4.863,-7.761 -5.66,-15.922 -0.797,-8.156 0.856,-12.507 2.465,-16.714 1.586,-4.149 3.219,-8.438 2.422,-16.473 C 57.586,11.723 55.156,7.832 52.797,4.066 50.406,0.25 47.934,-3.699 47.137,-11.855 c -0.805,-8.165 0.851,-12.508 2.465,-16.715 1.586,-4.145 3.218,-8.438 2.421,-16.477 l 0.532,-0.047 c 0.804,8.156 -0.852,12.508 -2.457,16.715 -1.586,4.152 -3.219,8.438 -2.43,16.477 0.789,8.035 3.227,11.929 5.578,15.695 2.391,3.812 4.863,7.762 5.66,15.918 0.805,8.16 -0.851,12.512 -2.465,16.719 -1.586,4.148 -3.218,8.437 -2.421,16.472 0.789,8.036 3.23,11.93 5.578,15.696 2.39,3.816 4.863,7.765 5.66,15.922 0.804,8.164 -0.852,12.507 -2.461,16.714 -1.59,4.145 -3.223,8.438 -2.426,16.477 z"
         style="fill:#ffffff;fill-opacity:1;fill-rule:nonzero;stroke:none"
         transform="matrix(0.84633787,0,0,0.84633787,45.204517,40.83554)"
         clip-path="url(#clipPath131)"
         id="path64" />
      <path
         d="m 64.734,117.277 c -0.804,-8.16 0.856,-12.511 2.457,-16.718 1.586,-4.149 3.219,-8.438 2.43,-16.473 C 68.832,76.051 66.395,72.156 64.043,68.391 61.652,64.578 59.18,60.625 58.383,52.469 57.578,44.305 59.238,39.961 60.848,35.754 62.434,31.602 64.066,27.316 63.27,19.277 62.473,11.25 60.035,7.355 57.684,3.59 55.293,-0.223 52.82,-4.164 52.016,-12.328 c -0.805,-8.168 0.851,-12.512 2.464,-16.719 1.586,-4.141 3.219,-8.437 2.422,-16.473 l 0.532,-0.054 c 0.804,8.156 -0.856,12.508 -2.457,16.715 -1.586,4.148 -3.219,8.437 -2.43,16.472 0.789,8.039 3.226,11.93 5.578,15.696 2.391,3.816 4.863,7.765 5.66,15.921 0.805,8.157 -0.851,12.508 -2.465,16.715 -1.586,4.153 -3.218,8.438 -2.422,16.477 0.79,8.035 3.227,11.93 5.579,15.695 2.39,3.813 4.863,7.762 5.66,15.922 0.804,8.164 -0.852,12.508 -2.465,16.715 -1.586,4.141 -3.219,8.437 -2.422,16.473 z"
         style="fill:#ffffff;fill-opacity:1;fill-rule:nonzero;stroke:none"
         transform="matrix(0.84633787,0,0,0.84633787,45.204517,40.83554)"
         clip-path="url(#clipPath124)"
         id="path67" />
      <path
         d="m 69.613,116.801 c -0.804,-8.156 0.856,-12.508 2.457,-16.715 1.586,-4.148 3.219,-8.438 2.43,-16.473 C 73.711,75.574 71.273,71.68 68.922,67.918 66.531,64.102 64.059,60.152 63.262,51.996 62.457,43.832 64.113,39.488 65.727,35.281 67.312,31.129 68.945,26.844 68.148,18.805 67.352,10.77 64.922,6.883 62.562,3.117 c -2.39,-3.812 -4.863,-7.762 -5.66,-15.922 -0.804,-8.164 0.852,-12.507 2.465,-16.715 1.586,-4.14 3.219,-8.437 2.422,-16.472 l 0.531,-0.051 c 0.805,8.16 -0.855,12.512 -2.457,16.719 -1.586,4.148 -3.218,8.437 -2.429,16.472 0.789,8.036 3.226,11.93 5.578,15.696 2.39,3.812 4.863,7.765 5.66,15.922 0.805,8.156 -0.852,12.507 -2.465,16.714 -1.586,4.153 -3.219,8.438 -2.422,16.477 0.789,8.035 3.227,11.93 5.578,15.695 2.391,3.813 4.864,7.762 5.66,15.918 0.805,8.168 -0.851,12.512 -2.464,16.719 -1.586,4.141 -3.219,8.438 -2.422,16.473 z"
         style="fill:#ffffff;fill-opacity:1;fill-rule:nonzero;stroke:none"
         transform="matrix(0.84633787,0,0,0.84633787,45.204517,40.83554)"
         clip-path="url(#clipPath142)"
         id="path70" />
      <path
         d="m 73.125,19.504 c 0.523,7.289 -1.023,11.359 -2.527,15.301 -1.606,4.207 -3.262,8.55 -2.465,16.718 0.805,8.157 3.269,12.106 5.66,15.918 2.359,3.766 4.789,7.653 5.578,15.696 0.789,8.039 -0.844,12.324 -2.43,16.476 -1.605,4.207 -3.261,8.551 -2.457,16.715 l 0.532,-0.055 c -0.789,-8.039 0.843,-12.324 2.422,-16.476 1.601,-4.207 3.261,-8.551 2.464,-16.715 C 79.098,74.926 76.625,70.977 74.242,67.16 71.883,63.395 69.453,59.512 68.664,51.465 67.875,43.422 69.508,39.141 71.086,34.992 72.609,31 74.18,26.883 73.656,19.504 Z"
         style="fill:#ffffff;fill-opacity:1;fill-rule:nonzero;stroke:none"
         transform="matrix(0.84633787,0,0,0.84633787,45.204517,40.83554)"
         clip-path="url(#clipPath143)"
         id="path73" />
      <path
         d="m 79.379,115.848 c -0.805,-8.157 0.855,-12.508 2.457,-16.715 1.586,-4.153 3.219,-8.442 2.43,-16.477 -0.789,-8.035 -3.227,-11.929 -5.578,-15.695 -2.391,-3.813 -4.864,-7.766 -5.661,-15.922 -0.804,-8.164 0.852,-12.508 2.465,-16.715 1.586,-4.152 3.219,-8.437 2.422,-16.472 -0.789,-8.04 -3.226,-11.934 -5.578,-15.7 -2.391,-3.812 -4.863,-7.761 -5.66,-15.918 -0.805,-8.168 0.851,-12.507 2.465,-16.714 1.586,-4.145 3.218,-8.442 2.421,-16.477 l 0.532,-0.047 c 0.804,8.156 -0.856,12.508 -2.457,16.715 -1.586,4.152 -3.219,8.437 -2.43,16.473 0.781,8.046 3.219,11.933 5.57,15.699 2.391,3.812 4.864,7.762 5.661,15.918 0.804,8.156 -0.856,12.508 -2.465,16.715 -1.586,4.152 -3.219,8.441 -2.422,16.476 0.789,8.035 3.226,11.93 5.578,15.696 2.391,3.812 4.863,7.765 5.66,15.921 0.805,8.164 -0.851,12.508 -2.465,16.715 -1.586,4.141 -3.219,8.438 -2.422,16.473 z"
         style="fill:#ffffff;fill-opacity:1;fill-rule:nonzero;stroke:none"
         transform="matrix(0.84633787,0,0,0.84633787,45.204517,40.83554)"
         clip-path="url(#clipPath145)"
         id="path76" />
      <path
         d="m 84.266,115.371 c -0.805,-8.156 0.851,-12.508 2.457,-16.715 1.586,-4.148 3.218,-8.437 2.429,-16.472 -0.789,-8.039 -3.226,-11.93 -5.578,-15.696 -2.39,-3.816 -4.863,-7.765 -5.66,-15.922 -0.805,-8.156 0.852,-12.507 2.465,-16.714 1.586,-4.153 3.219,-8.438 2.422,-16.477 C 82.012,9.34 79.574,5.445 77.223,1.68 c -2.391,-3.813 -4.864,-7.762 -5.661,-15.922 -0.804,-8.164 0.852,-12.508 2.465,-16.715 1.586,-4.141 3.219,-8.438 2.422,-16.473 l 0.531,-0.058 c 0.805,8.16 -0.855,12.511 -2.457,16.718 -1.585,4.149 -3.218,8.438 -2.429,16.473 0.789,8.035 3.226,11.93 5.578,15.695 2.39,3.817 4.863,7.766 5.66,15.922 0.805,8.157 -0.852,12.508 -2.465,16.715 -1.586,4.153 -3.219,8.438 -2.422,16.477 0.789,8.035 3.227,11.929 5.578,15.695 2.391,3.813 4.864,7.762 5.661,15.918 0.804,8.168 -0.852,12.512 -2.465,16.719 -1.586,4.14 -3.219,8.437 -2.422,16.472 z"
         style="fill:#ffffff;fill-opacity:1;fill-rule:nonzero;stroke:none"
         transform="matrix(0.84633787,0,0,0.84633787,45.204517,40.83554)"
         clip-path="url(#clipPath141)"
         id="path79" />
      <path
         d="M 89.145,114.891 C 88.34,106.734 89.996,102.383 91.602,98.176 93.188,94.023 94.82,89.738 94.031,81.703 93.242,73.664 90.805,69.77 88.453,66.004 86.062,62.191 83.59,58.242 82.793,50.086 81.988,41.926 83.645,37.574 85.258,33.371 86.844,29.219 88.477,24.93 87.68,16.895 86.891,8.867 84.449,4.973 82.094,1.215 c -2.395,-3.813 -4.864,-7.766 -5.66,-15.922 -0.805,-8.164 0.851,-12.508 2.461,-16.715 1.585,-4.14 3.222,-8.437 2.425,-16.473 l 0.532,-0.05 c 0.804,8.156 -0.856,12.507 -2.457,16.715 -1.586,4.152 -3.219,8.441 -2.43,16.476 0.789,8.035 3.226,11.93 5.578,15.695 2.391,3.813 4.863,7.766 5.66,15.922 0.805,8.157 -0.855,12.508 -2.465,16.715 -1.586,4.152 -3.218,8.438 -2.422,16.473 0.789,8.039 3.227,11.933 5.579,15.699 2.39,3.812 4.863,7.762 5.66,15.918 0.804,8.168 -0.856,12.508 -2.465,16.715 -1.586,4.152 -3.219,8.441 -2.422,16.476 z"
         style="fill:#ffffff;fill-opacity:1;fill-rule:nonzero;stroke:none"
         transform="matrix(0.84633787,0,0,0.84633787,45.204517,40.83554)"
         clip-path="url(#clipPath138)"
         id="path82" />
      <path
         d="m 94.031,114.418 c -0.804,-8.156 0.852,-12.508 2.457,-16.715 1.586,-4.152 3.219,-8.437 2.43,-16.476 C 98.129,73.191 95.691,69.297 93.34,65.531 90.949,61.719 88.477,57.77 87.68,49.609 86.875,41.453 88.531,37.102 90.145,32.895 91.73,28.746 93.363,24.457 92.566,16.422 91.777,8.383 89.336,4.492 86.988,0.727 c -2.39,-3.817 -4.863,-7.766 -5.66,-15.922 -0.805,-8.164 0.852,-12.508 2.461,-16.715 1.586,-4.145 3.223,-8.438 2.426,-16.477 l 0.531,-0.054 c 0.805,8.156 -0.855,12.507 -2.457,16.714 -1.586,4.153 -3.219,8.438 -2.43,16.477 0.789,8.035 3.227,11.93 5.579,15.695 2.39,3.813 4.863,7.762 5.66,15.918 0.804,8.16 -0.856,12.512 -2.465,16.719 -1.586,4.148 -3.219,8.438 -2.422,16.473 0.789,8.035 3.227,11.929 5.578,15.695 2.391,3.812 4.863,7.766 5.66,15.922 0.805,8.164 -0.851,12.508 -2.465,16.715 -1.586,4.144 -3.218,8.437 -2.422,16.476 z"
         style="fill:#ffffff;fill-opacity:1;fill-rule:nonzero;stroke:none"
         transform="matrix(0.84633787,0,0,0.84633787,45.204517,40.83554)"
         clip-path="url(#clipPath139)"
         id="path85" />
      <path
         d="m 98.91,113.945 c -0.805,-8.16 0.852,-12.511 2.453,-16.718 1.586,-4.149 3.223,-8.438 2.434,-16.473 -0.789,-8.035 -3.231,-11.93 -5.578,-15.695 C 95.828,61.246 93.355,57.293 92.559,49.137 91.754,40.98 93.41,36.629 95.02,32.422 96.605,28.27 98.242,23.984 97.445,15.945 96.656,7.91 94.215,4.016 91.867,0.25 c -2.394,-3.812 -4.863,-7.762 -5.66,-15.918 -0.805,-8.168 0.852,-12.512 2.461,-16.719 1.586,-4.14 3.223,-8.437 2.426,-16.472 l 0.531,-0.047 c 0.805,8.156 -0.855,12.508 -2.457,16.715 -1.586,4.148 -3.219,8.437 -2.43,16.472 0.789,8.039 3.227,11.934 5.578,15.696 2.391,3.816 4.864,7.765 5.661,15.921 0.804,8.157 -0.856,12.508 -2.465,16.715 -1.586,4.153 -3.219,8.438 -2.422,16.477 0.797,8.035 3.226,11.93 5.578,15.695 2.391,3.813 4.863,7.762 5.66,15.922 0.805,8.164 -0.855,12.508 -2.465,16.715 -1.586,4.14 -3.218,8.437 -2.422,16.473 z"
         style="fill:#ffffff;fill-opacity:1;fill-rule:nonzero;stroke:none"
         transform="matrix(0.84633787,0,0,0.84633787,45.204517,40.83554)"
         clip-path="url(#clipPath144)"
         id="path88" />
      <path
         d="m 103.797,113.461 c -0.805,-8.156 0.851,-12.508 2.453,-16.715 1.586,-4.148 3.223,-8.437 2.434,-16.473 -0.789,-8.039 -3.231,-11.933 -5.579,-15.695 -2.39,-3.816 -4.863,-7.766 -5.66,-15.922 -0.804,-8.164 0.852,-12.508 2.461,-16.715 1.586,-4.152 3.223,-8.437 2.426,-16.476 -0.797,-8.027 -3.238,-11.922 -5.586,-15.68 -2.394,-3.812 -4.863,-7.762 -5.66,-15.922 -0.805,-8.164 0.852,-12.508 2.461,-16.715 1.586,-4.14 3.223,-8.437 2.426,-16.472 l 0.531,-0.059 c 0.805,8.16 -0.856,12.512 -2.457,16.719 -1.586,4.148 -3.219,8.437 -2.43,16.473 0.789,8.035 3.227,11.929 5.578,15.695 2.391,3.812 4.864,7.766 5.66,15.922 0.805,8.156 -0.855,12.508 -2.464,16.715 -1.586,4.152 -3.219,8.437 -2.422,16.476 0.789,8.035 3.226,11.93 5.578,15.695 2.391,3.813 4.863,7.762 5.66,15.918 0.805,8.168 -0.855,12.512 -2.465,16.719 -1.586,4.149 -3.219,8.438 -2.422,16.473 z"
         style="fill:#ffffff;fill-opacity:1;fill-rule:nonzero;stroke:none"
         transform="matrix(0.84633787,0,0,0.84633787,45.204517,40.83554)"
         clip-path="url(#clipPath146)"
         id="path91" />
      <path
         d="m 108.676,112.988 c -0.805,-8.156 0.851,-12.508 2.453,-16.715 1.586,-4.152 3.223,-8.437 2.433,-16.476 -0.789,-8.035 -3.222,-11.922 -5.578,-15.688 -2.394,-3.812 -4.863,-7.761 -5.66,-15.918 -0.804,-8.16 0.852,-12.511 2.461,-16.718 1.586,-4.149 3.223,-8.438 2.426,-16.473 -0.789,-8.035 -3.231,-11.93 -5.59,-15.695 -2.391,-3.813 -4.859,-7.766 -5.656,-15.922 -0.809,-8.164 0.851,-12.508 2.461,-16.715 1.586,-4.145 3.222,-8.438 2.426,-16.477 l 0.531,-0.046 c 0.805,8.156 -0.856,12.507 -2.457,16.714 -1.586,4.153 -3.219,8.438 -2.43,16.477 0.789,8.035 3.227,11.93 5.578,15.695 2.391,3.813 4.864,7.754 5.668,15.922 0.805,8.156 -0.855,12.508 -2.465,16.715 -1.586,4.148 -3.218,8.437 -2.422,16.473 0.79,8.039 3.227,11.929 5.579,15.695 2.39,3.816 4.863,7.766 5.66,15.922 0.804,8.164 -0.856,12.508 -2.465,16.715 -1.586,4.144 -3.219,8.437 -2.422,16.476 z"
         style="fill:#ffffff;fill-opacity:1;fill-rule:nonzero;stroke:none"
         transform="matrix(0.84633787,0,0,0.84633787,45.204517,40.83554)"
         clip-path="url(#clipPath140)"
         id="path94" />
      <path
         d="m 113.555,112.516 c -0.805,-8.157 0.851,-12.508 2.461,-16.715 1.586,-4.153 3.222,-8.438 2.425,-16.477 -0.789,-8.035 -3.23,-11.929 -5.578,-15.695 -2.394,-3.813 -4.863,-7.766 -5.66,-15.922 -0.805,-8.164 0.852,-12.508 2.461,-16.715 1.586,-4.148 3.223,-8.437 2.426,-16.472 -0.789,-8.04 -3.231,-11.934 -5.59,-15.688 -2.391,-3.816 -4.859,-7.766 -5.656,-15.922 -0.809,-8.164 0.851,-12.508 2.461,-16.715 1.586,-4.144 3.222,-8.437 2.425,-16.476 l 0.532,-0.055 c 0.804,8.156 -0.856,12.508 -2.457,16.715 -1.586,4.152 -3.219,8.437 -2.43,16.473 0.789,8.039 3.227,11.933 5.578,15.699 2.391,3.812 4.863,7.761 5.66,15.918 0.805,8.156 -0.855,12.508 -2.465,16.715 -1.586,4.152 -3.218,8.441 -2.421,16.476 0.789,8.035 3.226,11.93 5.578,15.695 2.39,3.813 4.863,7.766 5.66,15.922 0.805,8.164 -0.856,12.508 -2.465,16.715 -1.586,4.153 -3.219,8.438 -2.422,16.473 z"
         style="fill:#ffffff;fill-opacity:1;fill-rule:nonzero;stroke:none"
         transform="matrix(0.84633787,0,0,0.84633787,45.204517,40.83554)"
         clip-path="url(#clipPath147)"
         id="path97" />
      <path
         id="path99"
         d="m 102.79188,87.328265 h 3.90416 v 0.829411 h -3.03835 v 1.411691 h 2.4036 v 0.829411 h -2.4036 v 1.610581 h 3.11452 v 0.829411 h -3.9871 v -5.510505 z"
         style="fill:#0000cc;fill-opacity:1;fill-rule:nonzero;stroke:none;stroke-width:0.846338;filter:url(#filter36)" />
      <path
         id="path100"
         d="m 107.92238,87.328265 h 0.86581 v 5.511352 h -0.86581 z"
         style="fill:#0000cc;fill-opacity:1;fill-rule:nonzero;stroke:none;stroke-width:0.846338;filter:url(#filter34)" />
      <path
         id="path101"
         d="m 110.36915,87.328265 h 0.79048 l 3.03835,4.049726 v -4.049726 h 0.8658 v 5.510505 h -0.79048 l -3.0375,-4.049726 v 4.049726 h -0.86665 z"
         style="fill:#0000cc;fill-opacity:1;fill-rule:nonzero;stroke:none;stroke-width:0.846338;filter:url(#filter32)" />
      <path
         id="path102"
         d="m 116.6769,91.499864 c 0.0897,0.115948 0.19889,0.218355 0.33431,0.313991 0.23105,0.155726 0.58143,0.311453 1.05115,0.311453 0.71431,0 1.10447,-0.386777 1.10447,-0.830258 0,-1.222958 -2.91648,-0.466332 -2.91648,-2.518701 0,-0.830258 0.71431,-1.537796 1.89495,-1.537796 0.56535,0 1.00122,0.171806 1.29236,0.353769 0.1718,0.102407 0.32076,0.218355 0.44263,0.353769 l -0.59159,0.59159 c -0.0889,-0.09564 -0.18535,-0.184501 -0.29368,-0.251362 -0.19212,-0.128643 -0.48326,-0.257287 -0.84972,-0.257287 -0.66776,0 -1.03169,0.346999 -1.03169,0.747317 0,1.216187 2.91564,0.468871 2.91564,2.518701 0,0.863265 -0.74732,1.609735 -1.97366,1.609735 -0.66776,0 -1.1671,-0.194658 -1.49463,-0.406242 -0.18789,-0.115949 -0.347,-0.258133 -0.48242,-0.413013 z"
         style="fill:#0000cc;fill-opacity:1;fill-rule:nonzero;stroke:none;stroke-width:0.846338;filter:url(#filter30)" />
      <path
         id="path103"
         d="m 122.00629,88.157676 h -1.65628 v -0.829411 h 4.18514 v 0.829411 h -1.65628 v 4.681094 h -0.86581 v -4.681094 z"
         style="fill:#0000cc;fill-opacity:1;fill-rule:nonzero;stroke:none;stroke-width:0.846338;filter:url(#filter28)" />
      <path
         id="path104"
         d="m 125.48136,87.328265 h 3.90415 v 0.829411 h -3.03835 v 1.411691 h 2.4036 v 0.829411 h -2.4036 v 1.610581 h 3.11452 v 0.829411 h -3.98709 v -5.510505 z"
         style="fill:#0000cc;fill-opacity:1;fill-rule:nonzero;stroke:none;stroke-width:0.846338;filter:url(#filter26)" />
      <path
         id="path105"
         d="m 130.60509,87.328265 h 0.8658 v 5.511352 h -0.8658 z"
         style="fill:#0000cc;fill-opacity:1;fill-rule:nonzero;stroke:none;stroke-width:0.846338;filter:url(#filter24)" />
      <path
         id="path106"
         d="m 133.05185,87.328265 h 0.78963 l 3.03836,4.049726 v -4.049726 h 0.86665 v 5.510505 h -0.79048 l -3.03836,-4.049726 v 4.049726 h -0.8658 z"
         style="fill:#0000cc;fill-opacity:1;fill-rule:nonzero;stroke:none;stroke-width:0.846338;filter:url(#filter22)" />
      <path
         id="path107"
         d="m 93.472012,95.691775 h -1.656283 v -0.829411 h 4.182602 v 0.829411 h -1.653745 v 4.681945 h -0.865803 v -4.681945 z"
         style="fill:#0000cc;fill-opacity:1;fill-rule:nonzero;stroke:none;stroke-width:0.846338;filter:url(#filter20)" />
      <path
         id="path108"
         d="m 96.947075,94.862364 h 3.904155 v 0.829411 h -3.038351 v 1.415077 h 2.403601 v 0.826872 h -2.403601 v 1.61312 h 3.114521 v 0.826876 h -3.987095 v -5.511356 z"
         style="fill:#0000cc;fill-opacity:1;fill-rule:nonzero;stroke:none;stroke-width:0.846338;filter:url(#filter18)" />
      <path
         id="path109"
         d="m 102.07758,94.862364 h 0.86665 v 4.68448 h 2.68458 v 0.826876 h -3.55123 z"
         style="fill:#0000cc;fill-opacity:1;fill-rule:nonzero;stroke:none;stroke-width:0.846338;filter:url(#filter16)" />
      <path
         id="path110"
         d="m 106.57417,94.862364 h 3.90416 v 0.829411 h -3.03836 v 1.415077 h 2.4036 v 0.826872 h -2.4036 v 1.61312 h 3.11453 v 0.826876 h -3.9871 v -5.511356 z"
         style="fill:#0000cc;fill-opacity:1;fill-rule:nonzero;stroke:none;stroke-width:0.846338;filter:url(#filter14)" />
      <path
         id="path111"
         d="m 111.73768,99.03481 c 0.0897,0.115102 0.19889,0.217509 0.3343,0.313991 0.23105,0.15488 0.57805,0.310606 1.05115,0.310606 0.71431,0 1.10447,-0.386776 1.10447,-0.826872 0,-1.222958 -2.91986,-0.468871 -2.91986,-2.522087 0,-0.830257 0.71769,-1.53441 1.89495,-1.53441 0.56535,0 1.00121,0.169267 1.29574,0.353769 0.16842,0.09987 0.32076,0.21497 0.44263,0.350384 l -0.59159,0.592436 c -0.0889,-0.0931 -0.18534,-0.181962 -0.29367,-0.251362 -0.19212,-0.12949 -0.48326,-0.258133 -0.85311,-0.258133 -0.66776,0 -1.0283,0.346999 -1.0283,0.747316 0,1.216188 2.91563,0.469718 2.91563,2.522087 0,0.863265 -0.74732,1.610585 -1.97366,1.610585 -0.66776,0 -1.1671,-0.19889 -1.49379,-0.40709 -0.18873,-0.115951 -0.34784,-0.260674 -0.48325,-0.416401 z"
         style="fill:#0000cc;fill-opacity:1;fill-rule:nonzero;stroke:none;stroke-width:0.846338;filter:url(#filter12)" />
      <path
         id="path112"
         d="m 121.05416,99.348801 c -0.16503,0.204814 -0.35715,0.386777 -0.5882,0.548427 -0.38678,0.280982 -0.94536,0.552662 -1.70283,0.552662 -1.65629,0 -2.91564,-1.256815 -2.91564,-2.833542 0,-1.576728 1.25935,-2.833539 2.91564,-2.833539 0.75747,0 1.30928,0.258133 1.68929,0.535731 0.21158,0.155727 0.4037,0.334304 0.55858,0.528962 l -0.55181,0.551812 c -0.10918,-0.148109 -0.25136,-0.290294 -0.41302,-0.406242 -0.28775,-0.211585 -0.71092,-0.416399 -1.28304,-0.416399 -1.14425,0 -2.04983,0.905582 -2.04983,2.046445 0,1.140018 0.90558,2.046445 2.04983,2.046445 0.56535,0 1.00206,-0.211584 1.29574,-0.43671 0.16927,-0.128643 0.32076,-0.264057 0.44348,-0.43671 z"
         style="fill:#0000cc;fill-opacity:1;fill-rule:nonzero;stroke:none;stroke-width:0.846338;filter:url(#filter10)" />
      <path
         id="path113"
         d="m 124.47929,94.782809 c 1.65629,0 2.91564,1.256811 2.91564,2.833539 0,1.576727 -1.25935,2.833542 -2.91564,2.833542 -1.65628,0 -2.91563,-1.256815 -2.91563,-2.833542 0,-1.570803 1.25935,-2.833539 2.91563,-2.833539 z m 0,4.876598 c 1.14425,0 2.05322,-0.902196 2.05322,-2.043059 0,-1.140864 -0.90897,-2.046445 -2.05322,-2.046445 -1.14425,0 -2.04983,0.905581 -2.04983,2.046445 0,1.140863 0.90558,2.043059 2.04983,2.043059 z"
         style="fill:#0000cc;fill-opacity:1;fill-rule:nonzero;stroke:none;stroke-width:0.846338;filter:url(#filter8)" />
      <path
         id="path114"
         d="m 128.62127,94.862364 h 2.21571 c 1.07062,0 1.85433,0.79048 1.85433,1.775617 0,0.985137 -0.78371,1.771385 -1.85433,1.771385 h -1.34229 v 1.970274 h -0.86665 v -5.517276 z m 2.21571,2.753984 c 0.55181,0 0.98853,-0.436711 0.98853,-0.985138 0,-0.552658 -0.43672,-0.985137 -0.98853,-0.985137 h -1.34229 v 1.970275 z"
         style="fill:#0000cc;fill-opacity:1;fill-rule:nonzero;stroke:none;stroke-width:0.846338;filter:url(#filter6)" />
      <path
         id="path115"
         d="m 133.83556,94.862364 h 3.90415 v 0.829411 h -3.03835 v 1.415077 h 2.4036 v 0.826872 h -2.4036 v 1.61312 h 3.11114 v 0.826876 h -3.97694 z"
         style="fill:#0000cc;fill-opacity:1;fill-rule:nonzero;stroke:none;stroke-width:0.846338;filter:url(#filter4)" />
    </g>
    <text
       xml:space="preserve"
       style="font-weight:bold;font-size:9.85119px;font-family:Arial;-inkscape-font-specification:'Arial Bold';text-align:center;writing-mode:lr-tb;direction:ltr;text-anchor:middle;fill:#0000cc;fill-opacity:1;stroke:none;stroke-width:1.47769;paint-order:markers stroke fill;filter:url(#filter46)"
       x="254.18301"
       y="56.209442"
       id="text1"><tspan
         sodipodi:role="line"
         id="tspan1"
         x="254.18301"
         y="56.209442"
         style="font-style:normal;font-variant:normal;font-weight:bold;font-stretch:normal;font-size:9.85119px;font-family:'Schibsted Grotesk';-inkscape-font-specification:'Schibsted Grotesk Bold';stroke-width:1.47769">XV Einstein Telescope Symposium</tspan><tspan
         sodipodi:role="line"
         x="254.18301"
         y="68.674988"
         style="font-style:normal;font-variant:normal;font-weight:bold;font-stretch:normal;font-size:9.85119px;font-family:'Schibsted Grotesk';-inkscape-font-specification:'Schibsted Grotesk Bold';stroke-width:1.47769"
         id="tspan2">Bologna, 2630 May 2025</tspan></text>
  </g>
</svg>
